<svg width="621" height="242" viewBox="0 0 621 242" fill="none" xmlns="http://www.w3.org/2000/svg">
<mask id="path-1-inside-1_26_315" fill="white">
<path d="M137.488 192.22C139.483 192.22 141.124 193.844 140.862 195.821C140.353 199.666 139.032 203.381 136.967 206.728C134.263 211.111 130.384 214.698 125.745 217.107C121.106 219.516 115.88 220.657 110.626 220.406C106.595 220.214 102.664 219.209 99.0768 217.47C97.2844 216.601 96.8434 214.331 97.9722 212.689V212.689C99.059 211.109 101.199 210.712 102.951 211.492C105.468 212.614 108.192 213.264 110.98 213.397C114.928 213.585 118.854 212.729 122.339 210.919C125.825 209.109 128.739 206.413 130.771 203.12C132.163 200.864 133.105 198.385 133.561 195.813C133.908 193.849 135.493 192.22 137.488 192.22V192.22Z"/>
</mask>
<path d="M137.488 192.22C139.483 192.22 141.124 193.844 140.862 195.821C140.353 199.666 139.032 203.381 136.967 206.728C134.263 211.111 130.384 214.698 125.745 217.107C121.106 219.516 115.88 220.657 110.626 220.406C106.595 220.214 102.664 219.209 99.0768 217.47C97.2844 216.601 96.8434 214.331 97.9722 212.689V212.689C99.059 211.109 101.199 210.712 102.951 211.492C105.468 212.614 108.192 213.264 110.98 213.397C114.928 213.585 118.854 212.729 122.339 210.919C125.825 209.109 128.739 206.413 130.771 203.12C132.163 200.864 133.105 198.385 133.561 195.813C133.908 193.849 135.493 192.22 137.488 192.22V192.22Z" fill="url(#paint0_linear_26_315)" stroke="black" stroke-width="3.32" mask="url(#path-1-inside-1_26_315)"/>
<mask id="path-2-inside-2_26_315" fill="white">
<path d="M85.6966 217.086C83.9984 217.271 82.4502 216.041 82.4895 214.333C82.5658 211.013 83.3453 207.728 84.7923 204.687C86.6873 200.704 89.6561 197.29 93.3817 194.808C97.1073 192.326 101.45 190.87 105.946 190.595C109.395 190.385 112.835 190.875 116.051 192.022C117.657 192.596 118.243 194.487 117.435 195.989V195.989C116.657 197.435 114.872 197.972 113.308 197.471C111.061 196.75 108.681 196.449 106.296 196.595C102.918 196.801 99.6548 197.895 96.8556 199.76C94.0564 201.625 91.8259 204.19 90.4021 207.182C89.4266 209.232 88.8549 211.43 88.7063 213.662C88.5927 215.366 87.3947 216.9 85.6966 217.086V217.086Z"/>
</mask>
<path d="M85.6966 217.086C83.9984 217.271 82.4502 216.041 82.4895 214.333C82.5658 211.013 83.3453 207.728 84.7923 204.687C86.6873 200.704 89.6561 197.29 93.3817 194.808C97.1073 192.326 101.45 190.87 105.946 190.595C109.395 190.385 112.835 190.875 116.051 192.022C117.657 192.596 118.243 194.487 117.435 195.989V195.989C116.657 197.435 114.872 197.972 113.308 197.471C111.061 196.75 108.681 196.449 106.296 196.595C102.918 196.801 99.6548 197.895 96.8556 199.76C94.0564 201.625 91.8259 204.19 90.4021 207.182C89.4266 209.232 88.8549 211.43 88.7063 213.662C88.5927 215.366 87.3947 216.9 85.6966 217.086V217.086Z" fill="url(#paint1_linear_26_315)" stroke="black" stroke-width="2.8431" mask="url(#path-2-inside-2_26_315)"/>
<mask id="path-3-inside-3_26_315" fill="white">
<path d="M46.5608 198.442C45.2792 197.718 44.8139 196.079 45.6997 194.904C47.422 192.618 49.6188 190.711 52.16 189.31C55.4881 187.475 59.2821 186.578 63.137 186.713C66.9919 186.849 70.7631 188.013 74.048 190.08C76.5679 191.666 78.7291 193.739 80.4027 196.158C81.2389 197.366 80.6985 198.985 79.3777 199.63V199.63C78.106 200.251 76.5871 199.73 75.7447 198.592C74.5342 196.958 73.0198 195.552 71.2771 194.455C68.8091 192.901 65.9756 192.027 63.0793 191.925C60.183 191.823 57.3324 192.497 54.8319 193.876C53.1188 194.82 51.6141 196.071 50.3882 197.558C49.4521 198.694 47.8425 199.166 46.5608 198.442V198.442Z"/>
</mask>
<path d="M46.5608 198.442C45.2792 197.718 44.8139 196.079 45.6997 194.904C47.422 192.618 49.6188 190.711 52.16 189.31C55.4881 187.475 59.2821 186.578 63.137 186.713C66.9919 186.849 70.7631 188.013 74.048 190.08C76.5679 191.666 78.7291 193.739 80.4027 196.158C81.2389 197.366 80.6985 198.985 79.3777 199.63V199.63C78.106 200.251 76.5871 199.73 75.7447 198.592C74.5342 196.958 73.0198 195.552 71.2771 194.455C68.8091 192.901 65.9756 192.027 63.0793 191.925C60.183 191.823 57.3324 192.497 54.8319 193.876C53.1188 194.82 51.6141 196.071 50.3882 197.558C49.4521 198.694 47.8425 199.166 46.5608 198.442V198.442Z" fill="url(#paint2_linear_26_315)" stroke="black" stroke-width="2.4498" mask="url(#path-3-inside-3_26_315)"/>
<mask id="path-4-inside-4_26_315" fill="white">
<path d="M59.1331 206.401C60.0531 207.037 60.2919 208.31 59.5401 209.138C58.0785 210.749 56.284 212.04 54.2637 212.925C51.6179 214.083 48.6844 214.5 45.7762 214.131C42.868 213.762 40.0943 212.62 37.7512 210.828C35.9537 209.453 34.4614 207.735 33.3621 205.789C32.8128 204.816 33.3337 203.628 34.378 203.232V203.232C35.3834 202.85 36.497 203.349 37.0558 204.268C37.859 205.589 38.9078 206.758 40.1509 207.709C41.9114 209.055 43.9954 209.913 46.1804 210.19C48.3655 210.468 50.5695 210.155 52.5574 209.284C53.9193 208.688 55.1446 207.845 56.1753 206.805C56.9624 206.01 58.2132 205.764 59.1331 206.401V206.401Z"/>
</mask>
<path d="M59.1331 206.401C60.0531 207.037 60.2919 208.31 59.5401 209.138C58.0785 210.749 56.284 212.04 54.2637 212.925C51.6179 214.083 48.6844 214.5 45.7762 214.131C42.868 213.762 40.0943 212.62 37.7512 210.828C35.9537 209.453 34.4614 207.735 33.3621 205.789C32.8128 204.816 33.3337 203.628 34.378 203.232V203.232C35.3834 202.85 36.497 203.349 37.0558 204.268C37.859 205.589 38.9078 206.758 40.1509 207.709C41.9114 209.055 43.9954 209.913 46.1804 210.19C48.3655 210.468 50.5695 210.155 52.5574 209.284C53.9193 208.688 55.1446 207.845 56.1753 206.805C56.9624 206.01 58.2132 205.764 59.1331 206.401V206.401Z" fill="url(#paint3_linear_26_315)" stroke="black" stroke-width="1.86185" mask="url(#path-4-inside-4_26_315)"/>
<path d="M619.205 191.041V196.801C619.307 209.939 605.344 215.089 570.605 222.721L488.525 228.121C463.486 235.644 449.237 237.94 423.365 237.841L416.885 240.361H381.245H371.525H341.286L322.76 238.92L311.046 239.641L267.486 229.201C250.862 225.609 241.692 223.467 226.806 218.401C222.863 227.273 219.901 230.48 212.406 231.001H178.926C165.379 227.865 160.946 224.12 155.526 215.881C155.526 215.881 144.726 212.641 144.006 210.121C143.286 207.601 154.086 204.361 153.006 202.561C151.926 200.761 148.819 199.298 141.846 198.241C141.846 198.241 110.166 204.001 111.606 201.841C113.046 199.681 127.806 188.161 124.566 187.441C121.326 186.721 27.366 178.801 27.366 178.801C27.366 178.801 10.8059 193.561 10.8059 188.881V177.361C9.46948 173.249 -0.354004 168.721 2.526 166.561C5.40601 164.401 11.166 165.841 11.166 165.841C19.3997 167.98 22.8771 169.695 28.4459 173.041L35.2859 171.961L127.086 173.041L184.686 157.561C184.686 157.561 121.326 1.32064 122.766 1.32066H167.766C172.658 1.27899 175.584 3.44448 181.086 10.6807L274.326 139.921L538.925 137.761C551.066 138.811 557.754 139.932 569.165 144.241C584.708 151.638 592.827 156.336 603.365 168.361C611.684 178.983 618.918 187.065 619.205 191.041Z" fill="url(#paint4_linear_26_315)" stroke="#CFCFCF" stroke-opacity="0.7" stroke-width="2.16"/>
<path d="M547.76 171.241H559.64C560 171.241 561.8 192.121 559.64 192.121H547.76C545.6 192.121 547.4 171.241 547.76 171.241Z" stroke="#001A2A" stroke-width="1.44"/>
<path d="M465.355 171.241H477.235C477.595 171.241 479.395 192.121 477.235 192.121H465.355C463.195 192.121 464.995 171.241 465.355 171.241Z" stroke="#001A2A" stroke-width="1.44"/>
<path d="M326.72 145.321H335.395C335.755 145.321 337.555 164.041 335.395 164.041H326.72C324.56 164.041 326.36 145.321 326.72 145.321Z" stroke="#001A2A" stroke-width="1.44"/>
<path d="M592.04 169.801H598.519L602.479 174.841H594.2C594.2 174.841 593.48 173.041 591.68 173.041C589.88 173.041 586.28 178.441 586.28 178.441C586.28 178.441 583.76 178.801 583.76 178.441C583.76 178.081 583.4 175.921 583.76 175.561C584.12 175.201 589.52 168.361 589.52 168.361C590.975 168.386 591.487 168.747 592.04 169.801Z" fill="url(#paint5_linear_26_315)"/>
<path d="M581.96 168.361H585.56C586.28 168.361 585.56 169.801 585.56 169.801C585.56 169.801 581.6 177.361 580.88 177.361H574.04C574.04 177.361 573.68 176.281 574.04 175.561C574.4 174.841 580.52 168.361 581.96 168.361Z" fill="url(#paint6_linear_26_315)"/>
<path d="M141.68 47.0406C169.173 84.6931 184.056 105.957 209.36 144.241C209.36 144.241 193.52 143.881 192.8 143.881C192.08 143.881 169.76 117.241 169.76 117.241L141.68 47.0406Z" fill="#9D022D"/>
<path d="M253.28 140.281C255.08 141.361 269.12 143.161 261.92 143.161H254H237.08L138.44 3.84058H154.64C154.64 3.84058 251.48 139.2 253.28 140.281Z" fill="#020D3E"/>
<path d="M133.76 3.84058L233.12 143.161H227.36C225.396 142.253 224.525 141.545 223.4 139.921L127.64 3.84058H133.76Z" fill="#020D3E"/>
<path d="M125.48 5.64058L221.24 143.161H216.2L133.4 26.1606L125.48 5.64058Z" fill="#020D3E"/>
<ellipse cx="2.16" cy="2.16" rx="2.16" ry="2.16" transform="matrix(-1 0 0 1 515.72 151.081)" fill="#000B20"/>
<ellipse cx="2.16" cy="2.16" rx="2.16" ry="2.16" transform="matrix(-1 0 0 1 538.04 177.721)" fill="#000B20"/>
<ellipse cx="2.16" cy="2.16" rx="2.16" ry="2.16" transform="matrix(-1 0 0 1 530.84 177.721)" fill="#000B20"/>
<ellipse cx="2.16" cy="2.16" rx="2.16" ry="2.16" transform="matrix(-1 0 0 1 523.64 177.721)" fill="#000B20"/>
<ellipse cx="2.16" cy="2.16" rx="2.16" ry="2.16" transform="matrix(-1 0 0 1 516.44 177.721)" fill="#000B20"/>
<ellipse cx="2.16" cy="2.16" rx="2.16" ry="2.16" transform="matrix(-1 0 0 1 509.24 177.721)" fill="#000B20"/>
<ellipse cx="2.16" cy="2.16" rx="2.16" ry="2.16" transform="matrix(-1 0 0 1 502.04 177.721)" fill="#000B20"/>
<ellipse cx="2.16" cy="2.16" rx="2.16" ry="2.16" transform="matrix(-1 0 0 1 494.84 177.721)" fill="#000B20"/>
<ellipse cx="2.16" cy="2.16" rx="2.16" ry="2.16" transform="matrix(-1 0 0 1 487.64 177.721)" fill="#000B20"/>
<ellipse cx="2.16" cy="2.16" rx="2.16" ry="2.16" transform="matrix(-1 0 0 1 457.4 177.721)" fill="#000B20"/>
<ellipse cx="2.16" cy="2.16" rx="2.16" ry="2.16" transform="matrix(-1 0 0 1 450.2 177.721)" fill="#000B20"/>
<ellipse cx="2.16" cy="2.16" rx="2.16" ry="2.16" transform="matrix(-1 0 0 1 443 177.721)" fill="#000B20"/>
<ellipse cx="2.16" cy="2.16" rx="2.16" ry="2.16" transform="matrix(-1 0 0 1 435.8 177.721)" fill="#000B20"/>
<ellipse cx="2.16" cy="2.16" rx="2.16" ry="2.16" transform="matrix(-1 0 0 1 428.6 177.721)" fill="#000B20"/>
<ellipse cx="2.16" cy="2.16" rx="2.16" ry="2.16" transform="matrix(-1 0 0 1 421.4 177.721)" fill="#000B20"/>
<ellipse cx="2.16" cy="2.16" rx="2.16" ry="2.16" transform="matrix(-1 0 0 1 414.2 177.721)" fill="#000B20"/>
<ellipse cx="2.16" cy="2.16" rx="2.16" ry="2.16" transform="matrix(-1 0 0 1 407 177.721)" fill="#000B20"/>
<ellipse cx="2.16" cy="2.16" rx="2.16" ry="2.16" transform="matrix(-1 0 0 1 399.8 177.721)" fill="#000B20"/>
<ellipse cx="2.16" cy="2.16" rx="2.16" ry="2.16" transform="matrix(-1 0 0 1 392.601 177.721)" fill="#000B20"/>
<ellipse cx="2.16" cy="2.16" rx="2.16" ry="2.16" transform="matrix(-1 0 0 1 385.4 177.721)" fill="#000B20"/>
<ellipse cx="2.16" cy="2.16" rx="2.16" ry="2.16" transform="matrix(-1 0 0 1 378.2 177.721)" fill="#000B20"/>
<ellipse cx="2.16" cy="2.16" rx="2.16" ry="2.16" transform="matrix(-1 0 0 1 371 177.721)" fill="#000B20"/>
<ellipse cx="2.16" cy="2.16" rx="2.16" ry="2.16" transform="matrix(-1 0 0 1 363.8 177.721)" fill="#000B20"/>
<ellipse cx="2.16" cy="2.16" rx="2.16" ry="2.16" transform="matrix(-1 0 0 1 356.6 177.721)" fill="#000B20"/>
<ellipse cx="2.16" cy="2.16" rx="2.16" ry="2.16" transform="matrix(-1 0 0 1 508.52 151.081)" fill="#000B20"/>
<ellipse cx="2.16" cy="2.16" rx="2.16" ry="2.16" transform="matrix(-1 0 0 1 502.04 151.081)" fill="#000B20"/>
<ellipse cx="2.16" cy="2.16" rx="2.16" ry="2.16" transform="matrix(-1 0 0 1 495.561 151.081)" fill="#000B20"/>
<ellipse cx="2.16" cy="2.16" rx="2.16" ry="2.16" transform="matrix(-1 0 0 1 489.08 151.081)" fill="#000B20"/>
<ellipse cx="2.16" cy="2.16" rx="2.16" ry="2.16" transform="matrix(-1 0 0 1 482.6 151.081)" fill="#000B20"/>
<ellipse cx="2.16" cy="2.16" rx="2.16" ry="2.16" transform="matrix(-1 0 0 1 476.12 151.081)" fill="#000B20"/>
<ellipse cx="2.16" cy="2.16" rx="2.16" ry="2.16" transform="matrix(-1 0 0 1 469.64 151.081)" fill="#000B20"/>
<ellipse cx="2.16" cy="2.16" rx="2.16" ry="2.16" transform="matrix(-1 0 0 1 463.16 151.081)" fill="#000B20"/>
<ellipse cx="2.16" cy="2.16" rx="2.16" ry="2.16" transform="matrix(-1 0 0 1 432.2 151.081)" fill="#000B20"/>
<ellipse cx="2.16" cy="2.16" rx="2.16" ry="2.16" transform="matrix(-1 0 0 1 425 151.081)" fill="#000B20"/>
<ellipse cx="2.16" cy="2.16" rx="2.16" ry="2.16" transform="matrix(-1 0 0 1 417.8 151.081)" fill="#000B20"/>
<ellipse cx="2.16" cy="2.16" rx="2.16" ry="2.16" transform="matrix(-1 0 0 1 410.6 151.081)" fill="#000B20"/>
<ellipse cx="2.16" cy="2.16" rx="2.16" ry="2.16" transform="matrix(-1 0 0 1 403.4 151.081)" fill="#000B20"/>
<ellipse cx="2.16" cy="2.16" rx="2.16" ry="2.16" transform="matrix(-1 0 0 1 396.2 151.081)" fill="#000B20"/>
<ellipse cx="2.16" cy="2.16" rx="2.16" ry="2.16" transform="matrix(-1 0 0 1 389 151.081)" fill="#000B20"/>
<ellipse cx="2.16" cy="2.16" rx="2.16" ry="2.16" transform="matrix(-1 0 0 1 381.8 151.081)" fill="#000B20"/>
<ellipse cx="2.16" cy="2.16" rx="2.16" ry="2.16" transform="matrix(-1 0 0 1 374.6 151.081)" fill="#000B20"/>
<ellipse cx="2.16" cy="2.16" rx="2.16" ry="2.16" transform="matrix(-1 0 0 1 367.4 151.081)" fill="#000B20"/>
<ellipse cx="2.16" cy="2.16" rx="2.16" ry="2.16" transform="matrix(-1 0 0 1 360.201 151.081)" fill="#000B20"/>
<ellipse cx="2.16" cy="2.16" rx="2.16" ry="2.16" transform="matrix(-1 0 0 1 353 151.081)" fill="#000B20"/>
<ellipse cx="2.16" cy="2.16" rx="2.16" ry="2.16" transform="matrix(-1 0 0 1 345.8 151.081)" fill="#000B20"/>
<ellipse cx="2.16" cy="2.16" rx="2.16" ry="2.16" transform="matrix(-1 0 0 1 317 151.081)" fill="#000B20"/>
<ellipse cx="2.16" cy="2.16" rx="2.16" ry="2.16" transform="matrix(-1 0 0 1 309.8 151.081)" fill="#000B20"/>
<ellipse cx="2.16" cy="2.16" rx="2.16" ry="2.16" transform="matrix(-1 0 0 1 302.6 151.081)" fill="#000B20"/>
<ellipse cx="2.16" cy="2.16" rx="2.16" ry="2.16" transform="matrix(-1 0 0 1 295.401 151.081)" fill="#000B20"/>
<ellipse cx="2.16" cy="2.16" rx="2.16" ry="2.16" transform="matrix(-1 0 0 1 288.2 151.081)" fill="#000B20"/>
<ellipse cx="2.16" cy="2.16" rx="2.16" ry="2.16" transform="matrix(-1 0 0 1 281 151.081)" fill="#000B20"/>
<ellipse cx="2.16" cy="2.16" rx="2.16" ry="2.16" transform="matrix(-1 0 0 1 273.8 151.081)" fill="#000B20"/>
<path d="M211.88 180.601C210.44 180.601 43.0405 176.281 42.6805 176.281C42.3206 176.281 104.601 184.2 104.601 184.2C112.477 184.869 127.39 184.409 128 187.08C128.019 190.587 120.722 195.453 113.5 201.481C113.5 201.481 121.98 201.38 133.5 198.5C145.02 195.62 153.969 202.09 154 202.5C154.031 202.91 150.413 204.834 144.5 210C152.569 214.381 156 215.5 156 215.5C156 215.5 159.824 224.866 171.561 227.76C179.283 230.86 185.818 231.31 201 230C207.328 230.298 213.497 230.717 219 228.5C222.795 225.12 225.593 218.544 225.999 217.519C226.333 218.885 308.512 238.271 311 238.5C313.5 238.73 319.24 238.5 325 238.5C330.76 238.5 338 239 338 239L372.5 239.5H378H417L423.5 237C452.197 237.361 462.037 234.398 489.08 225.96C489.08 225.96 489.8 221.279 489.44 219.479C489.08 217.679 438.32 228.12 438.32 228.12C438.32 228.12 414.2 231.001 410.6 228.121C407 225.241 436.52 225.241 436.52 225.241C452.572 220.936 461.75 218.592 465.32 209.401C465.549 206.808 466.098 205.499 465.32 202.561C463.187 196.902 460.164 194.921 452 193.201L425.72 189.961L370.28 184.921C370.28 184.921 357.32 183.121 356.24 183.121C355.16 183.121 353 182.041 352.28 182.041C351.56 182.041 301.52 178.801 301.52 178.801L277.76 177.001L217.28 172.321L211.88 170.161L198.92 166.921L169.04 163.681L130.52 174.121L207.56 177.001L233.48 179.881L352.28 187.081C352.28 187.081 399.8 192.481 400.16 192.841C400.52 193.201 400.52 199.321 399.44 199.321C398.36 199.321 344.36 190.321 344.36 190.321L309.08 188.881L218.72 182.761C218.72 182.761 213.32 180.601 211.88 180.601Z" fill="url(#paint7_linear_26_315)"/>
<path d="M332.12 232.441C329.305 227.2 329.595 223.732 328.881 218.04C328.881 218.04 293.845 215.71 293.601 216.6C293.356 217.49 297.693 228.907 309.8 232.441H332.12Z" fill="#AAC0D0"/>
<path d="M338.24 233.161C335.361 232.44 331.04 225.241 332.84 225.961C334.64 226.681 336.801 230.28 341.84 230.281C346.88 230.281 353.172 222.462 353.36 215.881C352.784 202.922 349.813 199.224 343.64 199.321C334.076 200.144 330.578 203.787 328.88 218.041C300.698 218.819 293.293 218.474 293.6 216.601V209.761C296.868 199.733 301.298 196.526 314.48 195.721H343.64C346.352 196.287 347.929 196.658 350.12 198.601C357.607 205.437 358.401 216.6 356.6 222.001C354.8 227.401 349.041 232.44 347.24 233.161C345.44 233.881 341.12 233.881 338.24 233.161Z" fill="white"/>
<ellipse cx="10.44" cy="14.4" rx="10.44" ry="14.4" transform="matrix(-1 0 0 1 352.28 200.041)" fill="#051E3C"/>
<path d="M192.708 219.48C189.893 214.24 190.184 210.771 189.469 205.079C189.469 205.079 154.433 202.749 154.189 203.639C153.945 204.53 158.281 215.946 170.389 219.48H192.708Z" fill="#AAC0D0"/>
<path d="M198.828 220.2C195.949 219.479 191.628 212.28 193.428 213C195.228 213.72 197.389 217.319 202.428 217.32C207.468 217.321 213.76 209.501 213.948 202.92C213.372 189.962 210.401 186.263 204.228 186.36C194.664 187.183 191.166 190.826 189.468 205.08C161.285 205.859 153.881 205.513 154.188 203.64V196.8C157.456 186.772 161.886 183.566 175.068 182.76H204.228C206.94 183.326 208.517 183.697 210.708 185.64C218.194 192.476 218.989 203.639 217.188 209.04C215.388 214.441 209.629 219.479 207.828 220.2C206.028 220.921 201.708 220.921 198.828 220.2Z" fill="white"/>
<ellipse cx="10.44" cy="14.4" rx="10.44" ry="14.4" transform="matrix(-1 0 0 1 212.868 187.08)" fill="#051E3C"/>
<path d="M457.039 202.921C459.597 205.308 459.624 206.566 457.039 208.681C457.039 208.681 404.48 200.04 403.76 200.04C403.04 200.04 404.12 193.561 404.12 193.561C404.12 193.561 452.747 199.134 457.039 202.921Z" fill="white"/>
<path d="M16.2376 175.458C15.8924 174.077 9.53084 169 10.0276 169C10.5244 169 19.7152 173.471 20.212 174.465C20.7088 175.458 15.9893 183.656 15.9892 183.407C15.9892 183.159 16.1826 178.628 16.2376 175.458Z" fill="black" stroke="#09274B" stroke-width="0.4968"/>
<defs>
<linearGradient id="paint0_linear_26_315" x1="112.05" y1="220.44" x2="112.05" y2="164" gradientUnits="userSpaceOnUse">
<stop stop-color="white"/>
<stop offset="1" stop-color="#999999"/>
</linearGradient>
<linearGradient id="paint1_linear_26_315" x1="104.73" y1="190.699" x2="109.974" y2="238.746" gradientUnits="userSpaceOnUse">
<stop stop-color="white"/>
<stop offset="1" stop-color="#999999"/>
</linearGradient>
<linearGradient id="paint2_linear_26_315" x1="73.1452" y1="189.542" x2="52.6645" y2="225.804" gradientUnits="userSpaceOnUse">
<stop stop-color="white"/>
<stop offset="1" stop-color="#999999"/>
</linearGradient>
<linearGradient id="paint3_linear_26_315" x1="38.3972" y1="211.298" x2="56.4063" y2="185.269" gradientUnits="userSpaceOnUse">
<stop stop-color="white"/>
<stop offset="1" stop-color="#999999"/>
</linearGradient>
<linearGradient id="paint4_linear_26_315" x1="563.24" y1="265.2" x2="152.48" y2="10.6801" gradientUnits="userSpaceOnUse">
<stop stop-color="white"/>
<stop offset="1" stop-color="#E1DCDC" stop-opacity="0"/>
</linearGradient>
<linearGradient id="paint5_linear_26_315" x1="588.18" y1="178.601" x2="588.18" y2="168.361" gradientUnits="userSpaceOnUse">
<stop stop-color="#051E3C"/>
<stop offset="1" stop-color="#134178"/>
</linearGradient>
<linearGradient id="paint6_linear_26_315" x1="588.18" y1="178.601" x2="588.18" y2="168.361" gradientUnits="userSpaceOnUse">
<stop stop-color="#051E3C"/>
<stop offset="1" stop-color="#134178"/>
</linearGradient>
<linearGradient id="paint7_linear_26_315" x1="489.541" y1="209.779" x2="42.6789" y2="209.779" gradientUnits="userSpaceOnUse">
<stop stop-color="#051E3C"/>
<stop offset="1" stop-color="#134178"/>
</linearGradient>
</defs>
</svg>
