<svg width="621" height="242" viewBox="0 0 621 242" fill="none" xmlns="http://www.w3.org/2000/svg">
<path d="M619.205 191.041V196.801C619.307 209.939 605.344 215.089 570.605 222.721L488.525 228.121C463.486 235.644 449.237 237.94 423.365 237.841L416.885 240.361H381.245H371.525H341.286L322.76 238.92L311.046 239.641L267.486 229.201C250.862 225.609 241.692 223.467 226.806 218.401C222.863 227.273 219.901 230.48 212.406 231.001H178.926C165.379 227.865 160.946 224.12 155.526 215.881C155.526 215.881 144.726 212.641 144.006 210.121C143.286 207.601 154.086 204.361 153.006 202.561C151.926 200.761 148.819 199.298 141.846 198.241C141.846 198.241 110.166 204.001 111.606 201.841C113.046 199.681 127.806 188.161 124.566 187.441C121.326 186.721 27.366 178.801 27.366 178.801C27.366 178.801 10.8059 193.561 10.8059 188.881V177.361C9.46948 173.249 -0.354004 168.721 2.526 166.561C5.40601 164.401 11.166 165.841 11.166 165.841C19.3997 167.98 22.8771 169.695 28.4459 173.041L35.2859 171.961L127.086 173.041L184.686 157.561C184.686 157.561 121.326 1.32064 122.766 1.32066H167.766C172.658 1.27899 175.584 3.44448 181.086 10.6807L274.326 139.921L538.925 137.761C551.066 138.811 557.754 139.932 569.165 144.241C584.708 151.638 592.827 156.336 603.365 168.361C611.684 178.983 618.918 187.065 619.205 191.041Z" fill="url(#paint0_linear_26_315)" stroke="#CFCFCF" stroke-opacity="0.7" stroke-width="2.16"/>
<path d="M547.76 171.241H559.64C560 171.241 561.8 192.121 559.64 192.121H547.76C545.6 192.121 547.4 171.241 547.76 171.241Z" stroke="#001A2A" stroke-width="1.44"/>
<path d="M465.355 171.241H477.235C477.595 171.241 479.395 192.121 477.235 192.121H465.355C463.195 192.121 464.995 171.241 465.355 171.241Z" stroke="#001A2A" stroke-width="1.44"/>
<path d="M326.72 145.321H335.395C335.755 145.321 337.555 164.041 335.395 164.041H326.72C324.56 164.041 326.36 145.321 326.72 145.321Z" stroke="#001A2A" stroke-width="1.44"/>
<path d="M592.04 169.801H598.519L602.479 174.841H594.2C594.2 174.841 593.48 173.041 591.68 173.041C589.88 173.041 586.28 178.441 586.28 178.441C586.28 178.441 583.76 178.801 583.76 178.441C583.76 178.081 583.4 175.921 583.76 175.561C584.12 175.201 589.52 168.361 589.52 168.361C590.975 168.386 591.487 168.747 592.04 169.801Z" fill="url(#paint1_linear_26_315)"/>
<path d="M581.96 168.361H585.56C586.28 168.361 585.56 169.801 585.56 169.801C585.56 169.801 581.6 177.361 580.88 177.361H574.04C574.04 177.361 573.68 176.281 574.04 175.561C574.4 174.841 580.52 168.361 581.96 168.361Z" fill="url(#paint2_linear_26_315)"/>
<path d="M141.68 47.0406C169.173 84.6931 184.056 105.957 209.36 144.241C209.36 144.241 193.52 143.881 192.8 143.881C192.08 143.881 169.76 117.241 169.76 117.241L141.68 47.0406Z" fill="#9D022D"/>
<path d="M253.28 140.281C255.08 141.361 269.12 143.161 261.92 143.161H254H237.08L138.44 3.84058H154.64C154.64 3.84058 251.48 139.2 253.28 140.281Z" fill="#020D3E"/>
<path d="M133.76 3.84058L233.12 143.161H227.36C225.396 142.253 224.525 141.545 223.4 139.921L127.64 3.84058H133.76Z" fill="#020D3E"/>
<path d="M125.48 5.64058L221.24 143.161H216.2L133.4 26.1606L125.48 5.64058Z" fill="#020D3E"/>
<ellipse cx="2.16" cy="2.16" rx="2.16" ry="2.16" transform="matrix(-1 0 0 1 515.72 151.081)" fill="#000B20"/>
<ellipse cx="2.16" cy="2.16" rx="2.16" ry="2.16" transform="matrix(-1 0 0 1 538.04 177.721)" fill="#000B20"/>
<ellipse cx="2.16" cy="2.16" rx="2.16" ry="2.16" transform="matrix(-1 0 0 1 530.84 177.721)" fill="#000B20"/>
<ellipse cx="2.16" cy="2.16" rx="2.16" ry="2.16" transform="matrix(-1 0 0 1 523.64 177.721)" fill="#000B20"/>
<ellipse cx="2.16" cy="2.16" rx="2.16" ry="2.16" transform="matrix(-1 0 0 1 516.44 177.721)" fill="#000B20"/>
<ellipse cx="2.16" cy="2.16" rx="2.16" ry="2.16" transform="matrix(-1 0 0 1 509.24 177.721)" fill="#000B20"/>
<ellipse cx="2.16" cy="2.16" rx="2.16" ry="2.16" transform="matrix(-1 0 0 1 502.04 177.721)" fill="#000B20"/>
<ellipse cx="2.16" cy="2.16" rx="2.16" ry="2.16" transform="matrix(-1 0 0 1 494.84 177.721)" fill="#000B20"/>
<ellipse cx="2.16" cy="2.16" rx="2.16" ry="2.16" transform="matrix(-1 0 0 1 487.64 177.721)" fill="#000B20"/>
<ellipse cx="2.16" cy="2.16" rx="2.16" ry="2.16" transform="matrix(-1 0 0 1 457.4 177.721)" fill="#000B20"/>
<ellipse cx="2.16" cy="2.16" rx="2.16" ry="2.16" transform="matrix(-1 0 0 1 450.2 177.721)" fill="#000B20"/>
<ellipse cx="2.16" cy="2.16" rx="2.16" ry="2.16" transform="matrix(-1 0 0 1 443 177.721)" fill="#000B20"/>
<ellipse cx="2.16" cy="2.16" rx="2.16" ry="2.16" transform="matrix(-1 0 0 1 435.8 177.721)" fill="#000B20"/>
<ellipse cx="2.16" cy="2.16" rx="2.16" ry="2.16" transform="matrix(-1 0 0 1 428.6 177.721)" fill="#000B20"/>
<ellipse cx="2.16" cy="2.16" rx="2.16" ry="2.16" transform="matrix(-1 0 0 1 421.4 177.721)" fill="#000B20"/>
<ellipse cx="2.16" cy="2.16" rx="2.16" ry="2.16" transform="matrix(-1 0 0 1 414.2 177.721)" fill="#000B20"/>
<ellipse cx="2.16" cy="2.16" rx="2.16" ry="2.16" transform="matrix(-1 0 0 1 407 177.721)" fill="#000B20"/>
<ellipse cx="2.16" cy="2.16" rx="2.16" ry="2.16" transform="matrix(-1 0 0 1 399.8 177.721)" fill="#000B20"/>
<ellipse cx="2.16" cy="2.16" rx="2.16" ry="2.16" transform="matrix(-1 0 0 1 392.601 177.721)" fill="#000B20"/>
<ellipse cx="2.16" cy="2.16" rx="2.16" ry="2.16" transform="matrix(-1 0 0 1 385.4 177.721)" fill="#000B20"/>
<ellipse cx="2.16" cy="2.16" rx="2.16" ry="2.16" transform="matrix(-1 0 0 1 378.2 177.721)" fill="#000B20"/>
<ellipse cx="2.16" cy="2.16" rx="2.16" ry="2.16" transform="matrix(-1 0 0 1 371 177.721)" fill="#000B20"/>
<ellipse cx="2.16" cy="2.16" rx="2.16" ry="2.16" transform="matrix(-1 0 0 1 363.8 177.721)" fill="#000B20"/>
<ellipse cx="2.16" cy="2.16" rx="2.16" ry="2.16" transform="matrix(-1 0 0 1 356.6 177.721)" fill="#000B20"/>
<ellipse cx="2.16" cy="2.16" rx="2.16" ry="2.16" transform="matrix(-1 0 0 1 508.52 151.081)" fill="#000B20"/>
<ellipse cx="2.16" cy="2.16" rx="2.16" ry="2.16" transform="matrix(-1 0 0 1 502.04 151.081)" fill="#000B20"/>
<ellipse cx="2.16" cy="2.16" rx="2.16" ry="2.16" transform="matrix(-1 0 0 1 495.561 151.081)" fill="#000B20"/>
<ellipse cx="2.16" cy="2.16" rx="2.16" ry="2.16" transform="matrix(-1 0 0 1 489.08 151.081)" fill="#000B20"/>
<ellipse cx="2.16" cy="2.16" rx="2.16" ry="2.16" transform="matrix(-1 0 0 1 482.6 151.081)" fill="#000B20"/>
<ellipse cx="2.16" cy="2.16" rx="2.16" ry="2.16" transform="matrix(-1 0 0 1 476.12 151.081)" fill="#000B20"/>
<ellipse cx="2.16" cy="2.16" rx="2.16" ry="2.16" transform="matrix(-1 0 0 1 469.64 151.081)" fill="#000B20"/>
<ellipse cx="2.16" cy="2.16" rx="2.16" ry="2.16" transform="matrix(-1 0 0 1 463.16 151.081)" fill="#000B20"/>
<ellipse cx="2.16" cy="2.16" rx="2.16" ry="2.16" transform="matrix(-1 0 0 1 432.2 151.081)" fill="#000B20"/>
<ellipse cx="2.16" cy="2.16" rx="2.16" ry="2.16" transform="matrix(-1 0 0 1 425 151.081)" fill="#000B20"/>
<ellipse cx="2.16" cy="2.16" rx="2.16" ry="2.16" transform="matrix(-1 0 0 1 417.8 151.081)" fill="#000B20"/>
<ellipse cx="2.16" cy="2.16" rx="2.16" ry="2.16" transform="matrix(-1 0 0 1 410.6 151.081)" fill="#000B20"/>
<ellipse cx="2.16" cy="2.16" rx="2.16" ry="2.16" transform="matrix(-1 0 0 1 403.4 151.081)" fill="#000B20"/>
<ellipse cx="2.16" cy="2.16" rx="2.16" ry="2.16" transform="matrix(-1 0 0 1 396.2 151.081)" fill="#000B20"/>
<ellipse cx="2.16" cy="2.16" rx="2.16" ry="2.16" transform="matrix(-1 0 0 1 389 151.081)" fill="#000B20"/>
<ellipse cx="2.16" cy="2.16" rx="2.16" ry="2.16" transform="matrix(-1 0 0 1 381.8 151.081)" fill="#000B20"/>
<ellipse cx="2.16" cy="2.16" rx="2.16" ry="2.16" transform="matrix(-1 0 0 1 374.6 151.081)" fill="#000B20"/>
<ellipse cx="2.16" cy="2.16" rx="2.16" ry="2.16" transform="matrix(-1 0 0 1 367.4 151.081)" fill="#000B20"/>
<ellipse cx="2.16" cy="2.16" rx="2.16" ry="2.16" transform="matrix(-1 0 0 1 360.201 151.081)" fill="#000B20"/>
<ellipse cx="2.16" cy="2.16" rx="2.16" ry="2.16" transform="matrix(-1 0 0 1 353 151.081)" fill="#000B20"/>
<ellipse cx="2.16" cy="2.16" rx="2.16" ry="2.16" transform="matrix(-1 0 0 1 345.8 151.081)" fill="#000B20"/>
<ellipse cx="2.16" cy="2.16" rx="2.16" ry="2.16" transform="matrix(-1 0 0 1 317 151.081)" fill="#000B20"/>
<ellipse cx="2.16" cy="2.16" rx="2.16" ry="2.16" transform="matrix(-1 0 0 1 309.8 151.081)" fill="#000B20"/>
<ellipse cx="2.16" cy="2.16" rx="2.16" ry="2.16" transform="matrix(-1 0 0 1 302.6 151.081)" fill="#000B20"/>
<ellipse cx="2.16" cy="2.16" rx="2.16" ry="2.16" transform="matrix(-1 0 0 1 295.401 151.081)" fill="#000B20"/>
<ellipse cx="2.16" cy="2.16" rx="2.16" ry="2.16" transform="matrix(-1 0 0 1 288.2 151.081)" fill="#000B20"/>
<ellipse cx="2.16" cy="2.16" rx="2.16" ry="2.16" transform="matrix(-1 0 0 1 281 151.081)" fill="#000B20"/>
<ellipse cx="2.16" cy="2.16" rx="2.16" ry="2.16" transform="matrix(-1 0 0 1 273.8 151.081)" fill="#000B20"/>
<path d="M211.88 180.601C210.44 180.601 43.0405 176.281 42.6805 176.281C42.3205 176.281 104.601 184.2 104.601 184.2C112.477 184.869 127.39 184.409 128 187.08C128.019 190.587 123.701 194.012 116.48 200.04C116.48 200.04 121.521 200.04 133.041 197.16C144.561 194.28 152.907 198.535 153.92 201.481C154.933 204.426 152.611 205.96 145.64 209.76C153.709 214.141 156.171 215.116 155.36 212.641C160.549 221.19 159.824 224.866 171.561 227.76H198.921C205.248 228.058 209.978 229.977 215.481 227.76C219.508 223.761 221.242 220.2 222.321 214.8C223.4 209.4 305.48 234.961 309.08 235.681C312.68 236.401 317.72 235.681 323.48 235.681C329.24 235.681 336.8 236.401 336.8 236.401H372.44H375.68H417.8H422.48C451.177 236.762 462.037 234.398 489.08 225.96C489.08 225.96 489.8 221.279 489.44 219.479C489.08 217.679 438.32 228.12 438.32 228.12C438.32 228.12 414.2 231.001 410.6 228.121C407 225.241 436.52 225.241 436.52 225.241C452.572 220.936 461.75 218.592 465.32 209.401C465.549 206.808 466.098 205.499 465.32 202.561C463.187 196.902 460.164 194.921 452 193.201L425.72 189.961L370.28 184.921C370.28 184.921 357.32 183.121 356.24 183.121C355.16 183.121 353 182.041 352.28 182.041C351.56 182.041 301.52 178.801 301.52 178.801L277.76 177.001L217.28 172.321L211.88 170.161L198.92 166.921L169.04 163.681L130.52 174.121L207.56 177.001L233.48 179.881L352.28 187.081C352.28 187.081 399.8 192.481 400.16 192.841C400.52 193.201 400.52 199.321 399.44 199.321C398.36 199.321 344.36 190.321 344.36 190.321L309.08 188.881L218.72 182.761C218.72 182.761 213.32 180.601 211.88 180.601Z" fill="url(#paint3_linear_26_315)"/>
<path d="M332.12 232.441C329.305 227.2 329.595 223.732 328.881 218.04C328.881 218.04 293.845 215.71 293.601 216.6C293.356 217.49 297.693 228.907 309.8 232.441H332.12Z" fill="#AAC0D0"/>
<path d="M338.24 233.161C335.361 232.44 331.04 225.241 332.84 225.961C334.64 226.681 336.801 230.28 341.84 230.281C346.88 230.281 353.172 222.462 353.36 215.881C352.784 202.922 349.813 199.224 343.64 199.321C334.076 200.144 330.578 203.787 328.88 218.041C300.698 218.819 293.293 218.474 293.6 216.601V209.761C296.868 199.733 301.298 196.526 314.48 195.721H343.64C346.352 196.287 347.929 196.658 350.12 198.601C357.607 205.437 358.401 216.6 356.6 222.001C354.8 227.401 349.041 232.44 347.24 233.161C345.44 233.881 341.12 233.881 338.24 233.161Z" fill="white"/>
<ellipse cx="10.44" cy="14.4" rx="10.44" ry="14.4" transform="matrix(-1 0 0 1 352.28 200.041)" fill="#051E3C"/>
<path d="M192.708 219.48C189.893 214.24 190.184 210.771 189.469 205.079C189.469 205.079 154.433 202.749 154.189 203.639C153.945 204.53 158.281 215.946 170.389 219.48H192.708Z" fill="#AAC0D0"/>
<path d="M198.828 220.2C195.949 219.479 191.628 212.28 193.428 213C195.228 213.72 197.389 217.319 202.428 217.32C207.468 217.321 213.76 209.501 213.948 202.92C213.372 189.962 210.401 186.263 204.228 186.36C194.664 187.183 191.166 190.826 189.468 205.08C161.285 205.859 153.881 205.513 154.188 203.64V196.8C157.456 186.772 161.886 183.566 175.068 182.76H204.228C206.94 183.326 208.517 183.697 210.708 185.64C218.194 192.476 218.989 203.639 217.188 209.04C215.388 214.441 209.629 219.479 207.828 220.2C206.028 220.921 201.708 220.921 198.828 220.2Z" fill="white"/>
<ellipse cx="10.44" cy="14.4" rx="10.44" ry="14.4" transform="matrix(-1 0 0 1 212.868 187.08)" fill="#051E3C"/>
<path d="M457.039 202.921C459.597 205.308 459.624 206.566 457.039 208.681C457.039 208.681 404.48 200.04 403.76 200.04C403.04 200.04 404.12 193.561 404.12 193.561C404.12 193.561 452.747 199.134 457.039 202.921Z" fill="white"/>
<path d="M9.75441 176.28C9.25406 174.278 0.0344065 166.92 0.754407 166.92C1.47441 166.92 14.7944 173.4 15.5144 174.84C16.2344 176.28 9.39443 188.16 9.39441 187.8C9.39438 187.44 9.67458 180.874 9.75441 176.28Z" fill="black" stroke="#09274B" stroke-width="0.72"/>
<defs>
<linearGradient id="paint0_linear_26_315" x1="563.24" y1="265.2" x2="152.48" y2="10.6801" gradientUnits="userSpaceOnUse">
<stop stop-color="white"/>
<stop offset="1" stop-color="#E1DCDC" stop-opacity="0"/>
</linearGradient>
<linearGradient id="paint1_linear_26_315" x1="588.18" y1="178.601" x2="588.18" y2="168.361" gradientUnits="userSpaceOnUse">
<stop stop-color="#051E3C"/>
<stop offset="1" stop-color="#134178"/>
</linearGradient>
<linearGradient id="paint2_linear_26_315" x1="588.18" y1="178.601" x2="588.18" y2="168.361" gradientUnits="userSpaceOnUse">
<stop stop-color="#051E3C"/>
<stop offset="1" stop-color="#134178"/>
</linearGradient>
<linearGradient id="paint3_linear_26_315" x1="489.541" y1="209.779" x2="42.6789" y2="209.779" gradientUnits="userSpaceOnUse">
<stop stop-color="#051E3C"/>
<stop offset="1" stop-color="#134178"/>
</linearGradient>
</defs>
</svg>
