<svg width="154" height="351" viewBox="0 0 154 351" fill="none" xmlns="http://www.w3.org/2000/svg">
<path opacity="0.3" d="M65.1076 120.556C64.4717 114.511 67.1958 108.867 68.8646 108.45C70.5335 108.032 70.4396 110.815 70.1161 112.207C74.9634 114.865 77.8087 115.742 83.8919 112.624V108.45L86.3966 107.615L88.0664 109.702C90.4325 114.586 90.6282 117.447 90.1537 122.643L86.8141 132.662C79.4072 134.504 75.4685 134.507 68.4462 132.662C66.4339 128.253 65.8681 125.527 65.1076 120.556Z" fill="url(#paint0_linear_78_256)" stroke="#B18944" stroke-width="0.8349"/>
<path d="M73.8728 120.138L72.6204 119.721C70.7851 120.213 70.5224 120.778 70.1157 121.808C72.0326 121.627 72.8406 121.246 73.8728 120.138ZM73.8728 120.138C76.1864 121.083 77.6287 121.318 80.9694 120.138L82.2218 119.93M82.2218 119.93L83.4741 119.721C84.695 120.264 85.2235 120.672 85.5614 121.808C83.984 121.954 81.798 120.721 82.2218 119.93Z" stroke="black" stroke-width="0.8349"/>
<path d="M74.2907 126.4L73.0384 125.983C71.203 126.475 70.9404 127.04 70.5337 128.07C72.4506 127.889 73.2586 127.508 74.2907 126.4ZM74.2907 126.4C76.6043 127.345 78.0466 127.58 81.3874 126.4L82.6397 126.191M82.6397 126.191L83.8921 125.983C85.113 126.526 85.6415 126.934 85.9793 128.07C84.402 128.216 82.216 126.982 82.6397 126.191Z" stroke="black" stroke-width="0.8349"/>
<path d="M75.7185 129.967L74.917 129.7C73.7423 130.015 73.5743 130.377 73.314 131.036C74.5408 130.92 75.0579 130.676 75.7185 129.967ZM75.7185 129.967C77.1992 130.572 78.1223 130.722 80.2603 129.967L81.0618 129.834M81.0618 129.834L81.8633 129.7C82.6447 130.048 82.9829 130.309 83.1992 131.036C82.1896 131.13 80.7906 130.34 81.0618 129.834Z" stroke="black" stroke-width="0.534336"/>
<path d="M118.123 136.836C114.02 136.863 112.391 135.74 110.609 131.827C107.232 133.091 106.644 134.925 106.434 138.924H98.9199L105.599 140.593C109.136 143.842 110.331 145.853 109.356 150.195C115.095 144.067 117.281 141.04 118.123 136.836Z" fill="#EAC080" stroke="#B18944" stroke-opacity="0.24" stroke-width="0.8349"/>
<path d="M36.9535 136.836C41.0949 136.863 42.7402 135.74 44.5394 131.827C47.9488 133.091 48.5422 134.925 48.7539 138.924H56.3398L49.5968 140.593C46.0262 143.842 44.8192 145.853 45.8038 150.195C40.0104 144.067 37.8036 141.04 36.9535 136.836Z" fill="#EAC080" stroke="#B18944" stroke-opacity="0.24" stroke-width="0.8349"/>
<path d="M100.59 132.244L98.085 138.924H106.434C106.756 135.128 107.286 133.272 110.608 131.827C111.336 130.67 111.365 129.924 111.026 128.487C104.731 127.5 102.024 127.861 100.59 132.244Z" fill="url(#paint1_linear_78_256)" stroke="#B18944" stroke-opacity="0.5" stroke-width="0.8349"/>
<path d="M54.67 132.154L56.3398 139.323H48.826C48.5039 135.249 47.9743 133.257 44.6517 131.706C43.9244 130.464 43.895 129.664 44.2342 128.121C50.5292 127.061 53.2362 127.449 54.67 132.154Z" fill="url(#paint2_linear_78_256)" stroke="#B18944" stroke-width="0.8349"/>
<path d="M62.6018 140.593C61.9356 138.976 62.1611 138.178 63.0193 136.836C64.3235 135.384 62.0741 135.926 56.3401 137.671C55.9462 139.122 55.3867 139.943 53.418 141.428C53.5311 143.671 53.9249 144.784 56.3401 146.02V151.03C56.3401 155.622 64.2717 155.204 64.2717 155.204C68.4462 155.204 71.3683 151.03 71.3683 151.03C71.8191 149.205 72.8149 148.305 75.5428 146.855V138.924H68.8636C69.5001 140.408 69.4806 141.612 69.2811 143.933C67.525 147.936 66.295 148.247 63.8542 146.855C64.0896 144.265 63.8085 142.897 62.6018 140.593Z" fill="url(#paint3_linear_78_256)" stroke="#B18944" stroke-width="0.8349"/>
<path d="M92.2409 140.596C92.9072 138.979 92.6817 138.182 91.8235 136.841C90.5192 135.39 92.7687 135.931 98.5027 137.676C98.8966 139.126 99.456 139.946 101.425 141.431C101.312 143.672 100.918 144.785 98.5027 146.02V151.026C98.5027 155.616 90.5711 155.199 90.5711 155.199C86.3966 155.199 83.4745 151.026 83.4745 151.026C83.0237 149.203 82.0278 148.304 79.3 146.854V138.928H85.9792C85.3427 140.411 85.3622 141.614 85.5617 143.934C87.3178 147.935 88.5478 148.245 90.9886 146.854C90.7532 144.265 91.0342 142.898 92.2409 140.596Z" fill="url(#paint4_linear_78_256)" stroke="#B18944" stroke-width="0.8349"/>
<path d="M79.3 134.332H75.543V146.855H79.3V134.332Z" fill="#E8D5AB" stroke="#B18944" stroke-width="0.8349"/>
<g filter="url(#filter0_d_78_256)">
<path d="M64.6891 105.11L68.0287 108.032C63.752 113.82 63.5803 118.003 65.524 126.4C62.2243 122.269 59.6797 123.478 59.6797 125.983C59.6797 128.487 62.7435 131.086 70.116 133.914L75.5428 134.332V138.924H69.2811C67.9352 136.421 66.2115 136.426 63.4368 136.001L55.9227 137.671C54.2089 128.125 51.0248 127.17 43.8166 128.487V121.391C42.0609 118.589 40.8117 117.04 38.3898 114.294C36.1055 108.212 36.1277 105.284 39.6421 101.353C42.317 98.4683 42.8202 96.4007 51.7482 96.3437C56.0965 96.3789 58.715 97.2737 64.6891 105.11Z" fill="url(#paint5_linear_78_256)" stroke="#8A6D38" stroke-width="0.8349"/>
<path d="M62.5716 106.703C62.5716 106.703 66.2164 107.945 65.4065 109.6C64.5965 111.256 53.3861 107.997 49.2073 109.6C49.2073 109.6 42.7276 112.083 40.7027 113.325C38.6778 114.567 39.8135 106.888 41.9176 102.978C44.26 100.969 45.8327 100.035 50.4222 99.6671C54.6064 98.3802 57.2993 100.05 62.5716 106.703Z" fill="url(#paint6_linear_78_256)"/>
<path d="M90.2466 105.11L86.9068 108.032C91.1838 113.82 91.3555 118.003 89.4116 126.4C92.7116 122.269 95.2564 123.478 95.2564 125.983C95.2564 128.487 92.1924 131.086 84.8193 133.914L79.392 134.332V138.924H85.6543C87.0003 136.421 88.7241 136.426 91.4991 136.001L99.0138 137.671C100.728 128.125 103.912 127.17 111.121 128.487V121.391C112.877 118.589 114.126 117.04 116.548 114.294C118.833 108.212 118.81 105.284 115.296 101.353C112.62 98.4683 112.117 96.4007 103.189 96.3437C98.8399 96.3789 96.2212 97.2737 90.2466 105.11Z" fill="url(#paint7_linear_78_256)" stroke="#8A6D38" stroke-width="0.8349"/>
<path d="M92.3642 106.703C92.3642 106.703 88.719 107.945 89.5291 109.6C90.3391 111.256 101.55 107.997 105.73 109.6C105.73 109.6 112.21 112.083 114.235 113.325C116.26 114.567 115.124 106.888 113.02 102.978C110.677 100.969 109.104 100.035 104.515 99.6671C100.33 98.3802 97.6369 100.05 92.3642 106.703Z" fill="url(#paint8_linear_78_256)"/>
</g>
<g filter="url(#filter1_d_78_256)">
<path d="M36.8864 132.915V136.749C39.0572 142.334 41.8945 145.66 51 152.088V153.792C49.3874 156.203 48.5942 157.487 47.8636 159.331C43.9057 183.625 42.8894 196.811 44.75 219C44.75 219 42.2457 216.514 40.3674 216.514C38.4891 216.514 36.8864 219 36.8864 219C36.4194 214.25 31.3695 154.588 28 150.384V135.471L30.6136 132.915C33.012 131.833 34.3727 131.565 36.8864 132.915Z" fill="url(#paint9_linear_78_256)" shape-rendering="crispEdges"/>
<path d="M36.8864 132.915V136.749C39.0572 142.334 41.8945 145.66 51 152.088V153.792C49.3874 156.203 48.5942 157.487 47.8636 159.331C43.9057 183.625 42.8894 196.811 44.75 219C44.75 219 42.2457 216.514 40.3674 216.514C38.4891 216.514 36.8864 219 36.8864 219C36.4194 214.25 31.3695 154.588 28 150.384V135.471L30.6136 132.915C33.012 131.833 34.3727 131.565 36.8864 132.915Z" stroke="#B18944" stroke-opacity="0.89" stroke-width="0.8349" shape-rendering="crispEdges"/>
</g>
<path d="M49.4084 321.711L48.8858 317.635C46.6299 318.052 45.3806 317.626 43.1365 316.005L42.6136 318.45C41.4387 321.506 41.4189 323.061 41.5683 325.787L35.8194 339.645C34.7498 341.52 34.7042 342.26 35.8194 342.905L42.0914 329.863L36.3421 343.72C36.4656 345.527 36.5795 346.392 37.91 344.536L43.1365 330.678L41.5685 337.199L38.4412 345.558C38.4815 346.582 38.5091 347.213 40.0006 346.981L43.6591 338.014L44.1818 331.493C44.6647 329.596 45.0513 328.99 46.2724 329.863L44.7044 338.014L42.0914 346.981C41.5687 348.611 43.6593 347.796 43.6593 347.796L46.2725 339.645L47.3178 333.938C47.7025 330.517 48.0467 329.122 48.8858 327.417C50.3675 325.2 50.1879 323.948 49.4084 321.711Z" fill="#FCC36E"/>
<path d="M38.4326 345.351C38.4358 345.421 38.4385 345.49 38.4412 345.558M38.4412 345.558C38.4815 346.582 38.5091 347.213 40.0006 346.981L43.6591 338.014L44.1818 331.493C44.6647 329.596 45.0513 328.99 46.2724 329.863L44.7044 338.014L42.0914 346.981C41.5687 348.611 43.6593 347.796 43.6593 347.796L46.2725 339.645L47.3178 333.938C47.7025 330.517 48.0467 329.122 48.8858 327.417C50.3675 325.2 50.1879 323.948 49.4084 321.711L48.8858 317.635C46.6299 318.052 45.3806 317.626 43.1365 316.005L42.6136 318.45C41.4387 321.506 41.4189 323.061 41.5683 325.787L35.8194 339.645C34.7498 341.52 34.7042 342.26 35.8194 342.905L42.0914 329.863L36.3421 343.72C36.4656 345.527 36.5795 346.392 37.91 344.536L43.1365 330.678L41.5685 337.199L38.4412 345.558Z" stroke="black"/>
<path d="M43.6586 311.114L42.6133 314.374C42.493 315.625 42.7833 316.166 43.6586 316.82C43.6586 316.82 47.3172 318.45 48.3625 317.635C49.4078 316.82 48.3625 314.374 48.3625 314.374C47.638 312.457 46.6382 311.715 43.6586 311.114Z" fill="#EBAA53" stroke="black"/>
<path d="M35.8196 227.152C35.3545 223.952 35.9038 222.65 37.3875 220.63L40.0006 228.782C40.382 243.07 41.0257 250.458 42.6139 263.019L43.6592 311.114C43.2845 311.598 43.1365 313.559 42.0912 314.374C41.0459 315.19 40.0006 267.91 40.0006 267.91C39.8876 254.499 39.0431 247.836 37.3875 236.118C36.6215 234.239 36.3353 231.71 35.8267 227.215L35.8196 227.152Z" fill="url(#paint10_linear_78_256)" stroke="#B18944"/>
<path d="M48.3628 318.45C46.5067 318.949 45.4871 318.79 43.6589 317.635C41.7258 319.748 41.5821 321.835 41.5684 325.787C44.8103 323.235 46.2986 323.516 48.3628 327.417C49.4674 325.297 49.4589 324.255 48.8854 322.526L48.3628 318.45Z" fill="#FEB548" stroke="black"/>
<path d="M41.5685 219C40.1887 220.615 38.4326 219 37.9099 219.815C37.3873 220.63 40.0005 229.597 40.0005 229.597C42.8353 249.506 43.8242 258.436 43.6591 267.095V311.114C46.17 311.361 47.2027 312.095 48.3629 314.374C49.2947 311.366 49.0732 309.03 48.3629 304.592C47.1918 296.258 46.7828 290.283 46.2723 278.507L45.7496 229.597C47.1366 226.588 47.0411 225.007 46.2723 222.261C44.8786 221.174 41.9866 219 41.5685 219Z" fill="url(#paint11_linear_78_256)" stroke="#B18944"/>
<path d="M37.1663 220.083C36.5135 218.333 37.8194 216 40.4305 216C43.0417 216 44.9997 217.75 45 218.917C45.0003 220.083 44.9997 223 41.7361 223C38.4725 223 37.8191 221.833 37.1663 220.083Z" fill="#D8A331" stroke="black" stroke-opacity="0.72"/>
<g filter="url(#filter2_d_78_256)">
<path d="M118.114 132.915V136.749C115.943 142.334 113.105 145.66 104 152.088V153.792C105.613 156.203 106.406 157.487 107.136 159.331C111.094 183.625 112.111 196.811 110.25 219C110.25 219 112.754 216.514 114.633 216.514C116.511 216.514 118.114 219 118.114 219C118.581 214.25 123.63 154.588 127 150.384V135.471L124.386 132.915C121.988 131.833 120.627 131.565 118.114 132.915Z" fill="url(#paint12_linear_78_256)" shape-rendering="crispEdges"/>
<path d="M118.114 132.915V136.749C115.943 142.334 113.105 145.66 104 152.088V153.792C105.613 156.203 106.406 157.487 107.136 159.331C111.094 183.625 112.111 196.811 110.25 219C110.25 219 112.754 216.514 114.633 216.514C116.511 216.514 118.114 219 118.114 219C118.581 214.25 123.63 154.588 127 150.384V135.471L124.386 132.915C121.988 131.833 120.627 131.565 118.114 132.915Z" stroke="#B18944" stroke-opacity="0.89" stroke-width="0.8349" shape-rendering="crispEdges"/>
</g>
<path d="M105.591 321.711L106.114 317.635C108.37 318.052 109.619 317.626 111.863 316.005L112.386 318.45C113.561 321.506 113.581 323.061 113.431 325.787L119.18 339.645C120.25 341.52 120.295 342.26 119.18 342.905L112.908 329.863L118.657 343.72C118.534 345.527 118.42 346.392 117.09 344.536L111.863 330.678L113.431 337.199L116.558 345.558C116.518 346.582 116.49 347.213 114.999 346.981L111.34 338.014L110.818 331.493C110.335 329.596 109.948 328.99 108.727 329.863L110.295 338.014L112.908 346.981C113.431 348.611 111.34 347.796 111.34 347.796L108.727 339.645L107.682 333.938C107.297 330.517 106.953 329.122 106.114 327.417C104.632 325.2 104.812 323.948 105.591 321.711Z" fill="#FCC36E"/>
<path d="M116.567 345.351C116.564 345.421 116.561 345.49 116.558 345.558M116.558 345.558C116.518 346.582 116.49 347.213 114.999 346.981L111.34 338.014L110.818 331.493C110.335 329.596 109.948 328.99 108.727 329.863L110.295 338.014L112.908 346.981C113.431 348.611 111.34 347.796 111.34 347.796L108.727 339.645L107.682 333.938C107.297 330.517 106.953 329.122 106.114 327.417C104.632 325.2 104.812 323.948 105.591 321.711L106.114 317.635C108.37 318.052 109.619 317.626 111.863 316.005L112.386 318.45C113.561 321.506 113.581 323.061 113.431 325.787L119.18 339.645C120.25 341.52 120.295 342.26 119.18 342.905L112.908 329.863L118.657 343.72C118.534 345.527 118.42 346.392 117.09 344.536L111.863 330.678L113.431 337.199L116.558 345.558Z" stroke="black"/>
<path d="M111.341 311.114L112.387 314.374C112.507 315.625 112.217 316.166 111.341 316.82C111.341 316.82 107.683 318.45 106.638 317.635C105.592 316.82 106.638 314.374 106.638 314.374C107.362 312.457 108.362 311.715 111.341 311.114Z" fill="#EBAA53" stroke="black"/>
<path d="M119.181 227.152C119.646 223.952 119.097 222.65 117.613 220.63L115 228.782C114.618 243.07 113.975 250.458 112.387 263.019L111.341 311.114C111.716 311.598 111.864 313.559 112.909 314.374C113.955 315.19 115 267.91 115 267.91C115.113 254.499 115.957 247.836 117.613 236.118C118.379 234.239 118.665 231.71 119.174 227.215L119.181 227.152Z" fill="url(#paint13_linear_78_256)" stroke="#B18944"/>
<path d="M106.637 318.45C108.493 318.949 109.513 318.79 111.341 317.635C113.274 319.748 113.418 321.835 113.432 325.787C110.19 323.235 108.701 323.516 106.637 327.417C105.533 325.297 105.541 324.255 106.115 322.526L106.637 318.45Z" fill="#FEB548" stroke="black"/>
<path d="M113.432 219C114.811 220.615 116.567 219 117.09 219.815C117.613 220.63 114.999 229.597 114.999 229.597C112.165 249.506 111.176 258.436 111.341 267.095V311.114C108.83 311.361 107.797 312.095 106.637 314.374C105.705 311.366 105.927 309.03 106.637 304.592C107.808 296.258 108.217 290.283 108.728 278.507L109.25 229.597C107.863 226.588 107.959 225.007 108.728 222.261C110.121 221.174 113.013 219 113.432 219Z" fill="url(#paint14_linear_78_256)" stroke="#B18944"/>
<path d="M117.833 220.083C118.486 218.333 117.18 216 114.569 216C111.958 216 110 217.75 110 218.917C109.999 220.083 110 223 113.263 223C116.527 223 117.18 221.833 117.833 220.083Z" fill="#D8A331" stroke="black" stroke-opacity="0.72"/>
<path d="M81.1605 14.106C78.5974 14.8272 77.1836 14.8383 74.4813 14.106V16.6107C76.8602 17.7954 78.3128 17.8671 81.1605 16.6107V14.106Z" fill="#EDC16B"/>
<path d="M81.1605 18.2805C78.5974 19.0017 77.1836 19.0128 74.4813 18.2805V20.7852C76.8602 21.9699 78.3128 22.0416 81.1605 20.7852V18.2805Z" fill="#EDC16B"/>
<path d="M81.1605 22.455C78.5974 23.1762 77.1836 23.1873 74.4813 22.455V24.9597C76.8602 26.1444 78.3128 26.2161 81.1605 24.9597V22.455Z" fill="#EDC16B"/>
<path d="M81.1605 27.047C78.5974 27.7681 77.1836 27.7793 74.4813 27.047V29.5517C76.8602 30.7364 78.3128 30.8081 81.1605 29.5517V27.047Z" fill="#EDC16B"/>
<path d="M81.1605 31.2215C78.5974 31.9426 77.1836 31.9538 74.4813 31.2215V33.7262C76.8602 34.9109 78.3128 34.9826 81.1605 33.7262V31.2215Z" fill="#EDC16B"/>
<path d="M81.1605 35.396C78.5974 36.1171 77.1836 36.1283 74.4813 35.396V37.9007C76.8602 39.0854 78.3128 39.1571 81.1605 37.9007V35.396Z" fill="#EDC16B"/>
<path d="M81.1605 39.5705C78.5974 40.2916 77.1836 40.3028 74.4813 39.5705V42.0752C76.8602 43.2599 78.3128 43.3316 81.1605 42.0752V39.5705Z" fill="#EDC16B"/>
<path d="M81.1605 43.745C78.5974 44.4661 77.1836 44.4773 74.4813 43.745V46.2497C76.8602 47.4344 78.3128 47.5061 81.1605 46.2497V43.745Z" fill="#EDC16B"/>
<path d="M81.1605 47.502C78.5974 48.2232 77.1836 48.2343 74.4813 47.502V50.0067C76.8602 51.1914 78.3128 51.2631 81.1605 50.0067V47.502Z" fill="#EDC16B"/>
<path d="M81.1605 51.6765C78.5974 52.3977 77.1836 52.4088 74.4813 51.6765V54.1812C76.8602 55.3659 78.3128 55.4376 81.1605 54.1812V51.6765Z" fill="#EDC16B"/>
<path d="M81.1605 55.851C78.5974 56.5722 77.1836 56.5833 74.4813 55.851V58.3557C76.8602 59.5404 78.3128 59.6121 81.1605 58.3557V55.851Z" fill="#EDC16B"/>
<path d="M81.1605 60.0255C78.5974 60.7467 77.1836 60.7578 74.4813 60.0255V62.5302C76.8602 63.7149 78.3128 63.7866 81.1605 62.5302V60.0255Z" fill="#EDC16B"/>
<path d="M81.1605 64.2C78.5974 64.9212 77.1836 64.9323 74.4813 64.2V66.7047C76.8602 67.8894 78.3128 67.9611 81.1605 66.7047V64.2Z" fill="#EDC16B"/>
<path d="M81.1605 67.5396C78.5974 68.2608 77.1836 68.2719 74.4813 67.5396V70.0443C76.8602 71.229 78.3128 71.3007 81.1605 70.0443V67.5396Z" fill="#EDC16B"/>
<path d="M81.1605 71.7141C78.5974 72.4353 77.1836 72.4464 74.4813 71.7141V74.2188C76.8602 75.4035 78.3128 75.4752 81.1605 74.2188V71.7141Z" fill="#EDC16B"/>
<path d="M81.1605 75.8886C78.5974 76.6098 77.1836 76.6209 74.4813 75.8886V78.3933C76.8602 79.578 78.3128 79.6497 81.1605 78.3933V75.8886Z" fill="#EDC16B"/>
<path d="M81.1605 80.0631C78.5974 80.7843 77.1836 80.7954 74.4813 80.0631V82.5678C76.8602 83.7525 78.3128 83.8242 81.1605 82.5678V80.0631Z" fill="#EDC16B"/>
<path d="M81.1605 84.2376C78.5974 84.9588 77.1836 84.9699 74.4813 84.2376V86.7423C76.8602 87.927 78.3128 87.9987 81.1605 86.7423V84.2376Z" fill="#EDC16B"/>
<path d="M81.1605 88.4121C78.5974 89.1333 77.1836 89.1444 74.4813 88.4121V90.9168C76.8602 92.1015 78.3128 92.1732 81.1605 90.9168V88.4121Z" fill="#EDC16B"/>
<path d="M81.1605 92.5866C78.5974 93.3078 77.1836 93.3189 74.4813 92.5866V95.0913C76.8602 96.276 78.3128 96.3477 81.1605 95.0913V92.5866Z" fill="#EDC16B"/>
<path d="M81.1605 96.7611C78.5974 97.4823 77.1836 97.4934 74.4813 96.7611V99.2658C76.8602 100.451 78.3128 100.522 81.1605 99.2658V96.7611Z" fill="#EDC16B"/>
<path d="M81.1605 100.936C78.5974 101.657 77.1836 101.668 74.4813 100.936V103.44C76.8602 104.625 78.3128 104.697 81.1605 103.44V100.936Z" fill="#EDC16B"/>
<path d="M81.1605 105.11C78.5974 105.831 77.1836 105.842 74.4813 105.11V107.615C76.8602 108.8 78.3128 108.871 81.1605 107.615V105.11Z" fill="#EDC16B"/>
<path d="M81.1605 109.285C78.5974 110.006 77.1836 110.017 74.4813 109.285V111.789C76.8602 112.974 78.3128 113.046 81.1605 111.789V109.285Z" fill="#EDC16B"/>
<path d="M81.1605 14.106C78.5974 14.8272 77.1836 14.8383 74.4813 14.106V16.6107C76.8602 17.7954 78.3128 17.8671 81.1605 16.6107V14.106Z" stroke="black" stroke-opacity="0.5" stroke-width="0.8349"/>
<path d="M81.1605 18.2805C78.5974 19.0017 77.1836 19.0128 74.4813 18.2805V20.7852C76.8602 21.9699 78.3128 22.0416 81.1605 20.7852V18.2805Z" stroke="black" stroke-opacity="0.5" stroke-width="0.8349"/>
<path d="M81.1605 22.455C78.5974 23.1762 77.1836 23.1873 74.4813 22.455V24.9597C76.8602 26.1444 78.3128 26.2161 81.1605 24.9597V22.455Z" stroke="black" stroke-opacity="0.5" stroke-width="0.8349"/>
<path d="M81.1605 27.047C78.5974 27.7681 77.1836 27.7793 74.4813 27.047V29.5517C76.8602 30.7364 78.3128 30.8081 81.1605 29.5517V27.047Z" stroke="black" stroke-opacity="0.5" stroke-width="0.8349"/>
<path d="M81.1605 31.2215C78.5974 31.9426 77.1836 31.9538 74.4813 31.2215V33.7262C76.8602 34.9109 78.3128 34.9826 81.1605 33.7262V31.2215Z" stroke="black" stroke-opacity="0.5" stroke-width="0.8349"/>
<path d="M81.1605 35.396C78.5974 36.1171 77.1836 36.1283 74.4813 35.396V37.9007C76.8602 39.0854 78.3128 39.1571 81.1605 37.9007V35.396Z" stroke="black" stroke-opacity="0.5" stroke-width="0.8349"/>
<path d="M81.1605 39.5705C78.5974 40.2916 77.1836 40.3028 74.4813 39.5705V42.0752C76.8602 43.2599 78.3128 43.3316 81.1605 42.0752V39.5705Z" stroke="black" stroke-opacity="0.5" stroke-width="0.8349"/>
<path d="M81.1605 43.745C78.5974 44.4661 77.1836 44.4773 74.4813 43.745V46.2497C76.8602 47.4344 78.3128 47.5061 81.1605 46.2497V43.745Z" stroke="black" stroke-opacity="0.5" stroke-width="0.8349"/>
<path d="M81.1605 47.502C78.5974 48.2232 77.1836 48.2343 74.4813 47.502V50.0067C76.8602 51.1914 78.3128 51.2631 81.1605 50.0067V47.502Z" stroke="black" stroke-opacity="0.5" stroke-width="0.8349"/>
<path d="M81.1605 51.6765C78.5974 52.3977 77.1836 52.4088 74.4813 51.6765V54.1812C76.8602 55.3659 78.3128 55.4376 81.1605 54.1812V51.6765Z" stroke="black" stroke-opacity="0.5" stroke-width="0.8349"/>
<path d="M81.1605 55.851C78.5974 56.5722 77.1836 56.5833 74.4813 55.851V58.3557C76.8602 59.5404 78.3128 59.6121 81.1605 58.3557V55.851Z" stroke="black" stroke-opacity="0.5" stroke-width="0.8349"/>
<path d="M81.1605 60.0255C78.5974 60.7467 77.1836 60.7578 74.4813 60.0255V62.5302C76.8602 63.7149 78.3128 63.7866 81.1605 62.5302V60.0255Z" stroke="black" stroke-opacity="0.5" stroke-width="0.8349"/>
<path d="M81.1605 64.2C78.5974 64.9212 77.1836 64.9323 74.4813 64.2V66.7047C76.8602 67.8894 78.3128 67.9611 81.1605 66.7047V64.2Z" stroke="black" stroke-opacity="0.5" stroke-width="0.8349"/>
<path d="M81.1605 67.5396C78.5974 68.2608 77.1836 68.2719 74.4813 67.5396V70.0443C76.8602 71.229 78.3128 71.3007 81.1605 70.0443V67.5396Z" stroke="black" stroke-opacity="0.5" stroke-width="0.8349"/>
<path d="M81.1605 71.7141C78.5974 72.4353 77.1836 72.4464 74.4813 71.7141V74.2188C76.8602 75.4035 78.3128 75.4752 81.1605 74.2188V71.7141Z" stroke="black" stroke-opacity="0.5" stroke-width="0.8349"/>
<path d="M81.1605 75.8886C78.5974 76.6098 77.1836 76.6209 74.4813 75.8886V78.3933C76.8602 79.578 78.3128 79.6497 81.1605 78.3933V75.8886Z" stroke="black" stroke-opacity="0.5" stroke-width="0.8349"/>
<path d="M81.1605 80.0631C78.5974 80.7843 77.1836 80.7954 74.4813 80.0631V82.5678C76.8602 83.7525 78.3128 83.8242 81.1605 82.5678V80.0631Z" stroke="black" stroke-opacity="0.5" stroke-width="0.8349"/>
<path d="M81.1605 84.2376C78.5974 84.9588 77.1836 84.9699 74.4813 84.2376V86.7423C76.8602 87.927 78.3128 87.9987 81.1605 86.7423V84.2376Z" stroke="black" stroke-opacity="0.5" stroke-width="0.8349"/>
<path d="M81.1605 88.4121C78.5974 89.1333 77.1836 89.1444 74.4813 88.4121V90.9168C76.8602 92.1015 78.3128 92.1732 81.1605 90.9168V88.4121Z" stroke="black" stroke-opacity="0.5" stroke-width="0.8349"/>
<path d="M81.1605 92.5866C78.5974 93.3078 77.1836 93.3189 74.4813 92.5866V95.0913C76.8602 96.276 78.3128 96.3477 81.1605 95.0913V92.5866Z" stroke="black" stroke-opacity="0.5" stroke-width="0.8349"/>
<path d="M81.1605 96.7611C78.5974 97.4823 77.1836 97.4934 74.4813 96.7611V99.2658C76.8602 100.451 78.3128 100.522 81.1605 99.2658V96.7611Z" stroke="black" stroke-opacity="0.5" stroke-width="0.8349"/>
<path d="M81.1605 100.936C78.5974 101.657 77.1836 101.668 74.4813 100.936V103.44C76.8602 104.625 78.3128 104.697 81.1605 103.44V100.936Z" stroke="black" stroke-opacity="0.5" stroke-width="0.8349"/>
<path d="M81.1605 105.11C78.5974 105.831 77.1836 105.842 74.4813 105.11V107.615C76.8602 108.8 78.3128 108.871 81.1605 107.615V105.11Z" stroke="black" stroke-opacity="0.5" stroke-width="0.8349"/>
<path d="M81.1605 109.285C78.5974 110.006 77.1836 110.017 74.4813 109.285V111.789C76.8602 112.974 78.3128 113.046 81.1605 111.789V109.285Z" stroke="black" stroke-opacity="0.5" stroke-width="0.8349"/>
<path d="M109.547 86.7424C112.203 82.6046 112.273 80.4959 112.469 76.7236C110.399 80.3177 107.877 83.4028 103.703 84.2377C99.5284 85.0726 97.7239 83.4243 94.1016 80.8981L95.7714 84.6551C102.177 89.8725 105.496 91.6298 109.547 86.7424Z" fill="#CB9A4D" stroke="#856646" stroke-width="0.8349"/>
<path d="M46.0949 86.8681C43.4391 82.8509 43.3694 80.8035 43.1727 77.141C45.2432 80.6305 47.7647 83.6258 51.9392 84.4364C56.1137 85.247 57.9182 83.6467 61.5405 81.194L59.8707 84.8417C53.4647 89.9071 50.1464 91.6134 46.0949 86.8681Z" fill="#CB9A4D" stroke="#856646" stroke-width="0.8349"/>
<path d="M108.712 91.7177C110.363 89.1457 110.406 87.8349 110.529 85.49C109.242 87.7241 107.674 89.6418 105.079 90.1608C102.485 90.6797 98.2763 87.1598 97.024 87.5773C95.7716 87.9947 98.2763 90.9169 98.2763 90.9169C102.258 94.16 106.194 94.7558 108.712 91.7177Z" fill="#CB9A4D" stroke="#856646" stroke-width="0.518974"/>
<path d="M46.6597 91.8219C45.0085 89.2068 44.9651 87.8741 44.8428 85.49C46.1302 87.7615 47.698 89.7112 50.2936 90.2389C52.8892 90.7665 57.0987 87.1877 58.3514 87.6122C59.6041 88.0366 57.0987 91.0076 57.0987 91.0076C53.1155 94.305 49.1789 94.9107 46.6597 91.8219Z" fill="#CB9A4D" stroke="#856646" stroke-width="0.518974"/>
<g filter="url(#filter3_d_78_256)">
<path d="M112.472 63.3652C112.89 60.8605 112.526 58.148 111.22 55.4336L109.55 56.686C111.164 62.4112 110.116 65.2587 99.9489 68.792C95.6936 68.1504 95.7748 64.2001 95.7748 64.2001L81.5815 54.1813V58.3558L92.0174 70.8793C92.0174 70.8793 97.8617 72.9665 101.619 72.1316C105.376 71.2967 112.055 65.8699 112.472 63.3652Z" fill="#CB9A4D"/>
<path d="M112.472 63.3652C112.89 60.8605 112.526 58.148 111.22 55.4336L109.55 56.686C111.164 62.4112 110.116 65.2587 99.9489 68.792C95.6936 68.1504 95.7748 64.2001 95.7748 64.2001L81.5815 54.1813V58.3558L92.0174 70.8793C92.0174 70.8793 97.8617 72.9665 101.619 72.1316C105.376 71.2967 112.055 65.8699 112.472 63.3652Z" stroke="#856646" stroke-width="0.8349"/>
</g>
<g filter="url(#filter4_d_78_256)">
<path d="M43.3375 63.0592C42.92 60.5241 43.2843 57.7787 44.5899 55.0313L46.2599 56.2989C44.6462 62.0936 45.6942 64.9757 55.8622 68.5519C60.118 67.9025 60.0367 63.9042 60.0367 63.9042L74.2314 53.7638V57.989L63.7946 70.6645C63.7946 70.6645 57.9497 72.7771 54.1922 71.9321C50.4348 71.087 43.7549 65.5943 43.3375 63.0592Z" fill="#CB9A4D"/>
<path d="M43.3375 63.0592C42.92 60.5241 43.2843 57.7787 44.5899 55.0313L46.2599 56.2989C44.6462 62.0936 45.6942 64.9757 55.8622 68.5519C60.118 67.9025 60.0367 63.9042 60.0367 63.9042L74.2314 53.7638V57.989L63.7946 70.6645C63.7946 70.6645 57.9497 72.7771 54.1922 71.9321C50.4348 71.087 43.7549 65.5943 43.3375 63.0592Z" stroke="#856646" stroke-width="0.8349"/>
</g>
<g filter="url(#filter5_d_78_256)">
<path d="M110.8 54.1812C111.217 51.6765 110.853 48.9641 109.547 46.2497L107.877 47.502C109.491 53.2272 108.443 56.0747 98.2761 59.6081C94.0208 58.9665 92.848 57.6911 92.4318 54.1812L81.5781 53.7638C85.7523 56.7924 88.6748 58.7732 91.5969 60.8604C94.5191 62.9477 96.1889 63.7826 99.9459 62.9477C103.703 62.1128 110.382 56.6859 110.8 54.1812Z" fill="#CB9A4D"/>
<path d="M110.8 54.1812C111.217 51.6765 110.853 48.9641 109.547 46.2497L107.877 47.502C109.491 53.2272 108.443 56.0747 98.2761 59.6081C94.0208 58.9665 92.848 57.6911 92.4318 54.1812L81.5781 53.7638C85.7523 56.7924 88.6748 58.7732 91.5969 60.8604C94.5191 62.9477 96.1889 63.7826 99.9459 62.9477C103.703 62.1128 110.382 56.6859 110.8 54.1812Z" stroke="#856646" stroke-width="0.8349"/>
</g>
<g filter="url(#filter6_d_78_256)">
<path d="M45.0073 54.0321C44.5898 51.5745 44.9541 48.913 46.2597 46.2497L47.9297 47.4785C46.316 53.0961 47.364 55.89 57.5319 59.357C61.7876 58.7274 62.9605 57.476 63.3767 54.0321L74.2314 53.6225C70.0569 56.5942 67.1341 58.5378 64.2117 60.5858C61.2893 62.6338 59.6194 63.453 55.862 62.6338C52.1046 61.8146 45.4247 56.4897 45.0073 54.0321Z" fill="#CB9A4D"/>
<path d="M45.0073 54.0321C44.5898 51.5745 44.9541 48.913 46.2597 46.2497L47.9297 47.4785C46.316 53.0961 47.364 55.89 57.5319 59.357C61.7876 58.7274 62.9605 57.476 63.3767 54.0321L74.2314 53.6225C70.0569 56.5942 67.1341 58.5378 64.2117 60.5858C61.2893 62.6338 59.6194 63.453 55.862 62.6338C52.1046 61.8146 45.4247 56.4897 45.0073 54.0321Z" stroke="#856646" stroke-width="0.8349"/>
</g>
<g filter="url(#filter7_d_78_256)">
<path d="M114.139 72.9665C114.556 70.4618 113.358 67.3319 112.052 64.6175L111.217 66.2873C112.83 72.0125 112.618 75.6949 102.451 79.2282C98.1953 78.5866 98.2762 76.3061 98.2762 76.3061L81.9956 65.4524V68.3745C87.4566 71.566 90.6086 73.1992 93.6838 80.4806C93.6838 80.4806 99.946 84.6551 103.703 83.8202C107.46 82.9853 113.721 75.4712 114.139 72.9665Z" fill="#CB9A4D"/>
<path d="M114.139 72.9665C114.556 70.4618 113.358 67.3319 112.052 64.6175L111.217 66.2873C112.83 72.0125 112.618 75.6949 102.451 79.2282C98.1953 78.5866 98.2762 76.3061 98.2762 76.3061L81.9956 65.4524V68.3745C87.4566 71.566 90.6086 73.1992 93.6838 80.4806C93.6838 80.4806 99.946 84.6551 103.703 83.8202C107.46 82.9853 113.721 75.4712 114.139 72.9665Z" stroke="#856646" stroke-width="0.8349"/>
</g>
<g filter="url(#filter8_d_78_256)">
<path d="M41.5878 72.9188C41.1703 70.4284 42.3691 67.3164 43.6746 64.6175L44.5099 66.2777C42.8964 71.9702 43.109 75.6316 53.2758 79.1447C57.531 78.5068 57.4502 76.2393 57.4502 76.2393L73.7305 65.4476V68.3531C68.2695 71.5263 65.1177 73.1502 62.0425 80.3899C62.0425 80.3899 55.7804 84.5406 52.0234 83.7104C48.2665 82.8803 42.0052 75.4092 41.5878 72.9188Z" fill="#CB9A4D"/>
<path d="M41.5878 72.9188C41.1703 70.4284 42.3691 67.3164 43.6746 64.6175L44.5099 66.2777C42.8964 71.9702 43.109 75.6316 53.2758 79.1447C57.531 78.5068 57.4502 76.2393 57.4502 76.2393L73.7305 65.4476V68.3531C68.2695 71.5263 65.1177 73.1502 62.0425 80.3899C62.0425 80.3899 55.7804 84.5406 52.0234 83.7104C48.2665 82.8803 42.0052 75.4092 41.5878 72.9188Z" stroke="#856646" stroke-width="0.8349"/>
</g>
<path d="M84.0823 9.5141L81.5776 9.93155V11.6013L88.6743 10.349L84.0823 9.5141Z" fill="#CB9A4D"/>
<path d="M83.6649 8.6792C83.1019 9.19714 82.6187 9.36865 81.5776 9.5141V9.93155L84.0823 9.5141L88.6743 10.349L81.5776 11.6013V12.4362L84.0823 12.0188C84.0823 12.0188 87.8394 11.6013 89.0917 11.1839C90.3441 10.7664 89.4168 9.98261 88.6743 9.5141L83.6649 8.6792Z" fill="#B08747"/>
<path d="M72.1767 9.5141L74.6821 9.93155V11.6013L67.5834 10.349L72.1767 9.5141Z" fill="#CB9A4D"/>
<path d="M72.5943 8.6792C73.1574 9.19714 73.6408 9.36865 74.6821 9.5141V9.93155L72.1767 9.5141L67.5834 10.349L74.6821 11.6013V12.4362L72.1767 12.0188C72.1767 12.0188 68.4186 11.6013 67.1659 11.1839C65.9131 10.7664 66.8407 9.98261 67.5834 9.5141L72.5943 8.6792Z" fill="#B08747"/>
<path d="M99.5285 17.8631C99.1111 17.0282 96.4653 14.2058 94.5191 13.2712L98.2762 18.2806C98.2762 18.2806 99.1111 20.7853 98.6936 21.6202C98.2762 22.4551 93.6842 24.5423 91.597 25.3772C89.5097 26.2121 81.9956 27.4645 81.9956 27.4645V28.7168L91.597 26.6296C91.597 26.6296 98.6936 23.7074 99.5285 22.4551C100.363 21.2027 99.946 18.698 99.5285 17.8631Z" fill="#B08747"/>
<g filter="url(#filter9_d_78_256)">
<path d="M99.1111 22.0376C99.3573 18.5412 96.9337 16.6544 94.5191 13.2712C95.8987 16.1708 96.9174 17.9498 96.1889 19.5329C95.2653 21.0394 94.5847 21.6149 93.2668 22.4551C89.555 24.4623 87.1175 25.0201 81.9956 24.9598V27.4645C88.521 26.505 92.9377 25.3886 99.1111 22.0376Z" fill="#CB9A4D"/>
</g>
<path d="M91.3961 14.5903C91.1623 14.1228 90.5991 13.7945 89.5092 13.2712L90.6947 14.8241C90.6947 14.8241 91.1623 16.2267 90.9285 16.6943C90.6947 17.1618 88.1233 18.3307 86.9544 18.7982C85.7855 19.2658 81.5776 19.9671 81.5776 19.9671V20.6684C85.1497 19.9564 88.2568 19.9671 89.5092 19.5329C90.7615 19.0988 91.5463 18.147 92.0139 17.4457C92.4769 16.7512 91.6463 15.0907 91.4031 14.6044L91.3961 14.5903Z" fill="#B08747"/>
<g filter="url(#filter10_d_78_256)">
<path d="M91.1623 16.9281C91.6533 15.2916 89.5092 13.2712 89.5092 13.2712C89.5092 13.2712 90.3775 14.4401 89.5259 15.5254C88.6743 16.6108 88.6276 16.6913 87.8895 17.1618C85.8109 18.2859 84.4459 18.5982 81.5776 18.5645V19.9671C85.2319 19.4298 90.6713 18.5645 91.1623 16.9281Z" fill="#CB9A4D"/>
</g>
<path d="M92.8488 9.93157C94.1011 9.49742 92.0233 7.84433 92.0233 7.84433C91.0663 6.86401 90.5095 6.54462 89.5092 6.1745L87.8394 5.3396L83.6649 4.5047L81.5776 5.3396C84.8811 5.22875 87.0045 5.75705 88.6743 6.59195C90.3441 7.42685 90.3441 7.0094 90.3441 7.0094C90.3441 7.0094 93.1806 10.1932 92.4313 9.5141C91.6821 8.83503 85.8089 7.5451 81.587 7.84433V8.67922C85.1591 7.96724 91.5964 10.3657 92.8488 9.93157Z" fill="#B08747"/>
<g filter="url(#filter11_d_78_256)">
<path d="M92.4403 9.09665C91.1969 7.42685 90.3535 7.0094 90.3535 7.0094C90.3535 7.0094 89.9266 7.0094 88.6837 6.59195C87.4407 6.17451 88.2568 6.1745 87.013 5.75706C85.7693 5.33962 81.587 5.3396 81.587 5.3396L81.5776 7.8443C85.8289 7.15678 93.6837 10.7664 92.4403 9.09665Z" fill="#CB9A4D"/>
</g>
<path d="M62.7764 9.93157C61.5241 9.49742 63.6019 7.84433 63.6019 7.84433C64.5588 6.86401 65.1155 6.54462 66.1158 6.1745L67.7855 5.3396L71.9597 4.5047L74.0469 5.3396C70.7436 5.22875 68.6203 5.75705 66.9506 6.59195C65.2809 7.42685 65.2809 7.0094 65.2809 7.0094C65.2809 7.0094 62.4446 10.1932 63.1938 9.5141C63.943 8.83503 69.8158 7.5451 74.0375 7.84433V8.67922C70.4656 7.96724 64.0287 10.3657 62.7764 9.93157Z" fill="#B08747"/>
<g filter="url(#filter12_d_78_256)">
<path d="M63.1848 9.09665C64.4281 7.42685 65.2716 7.0094 65.2716 7.0094C65.2716 7.0094 65.6984 7.0094 66.9413 6.59195C68.1842 6.17451 67.3681 6.1745 68.6118 5.75706C69.8555 5.33962 74.0375 5.3396 74.0375 5.3396L74.0469 7.8443C69.7958 7.15678 61.9415 10.7664 63.1848 9.09665Z" fill="#CB9A4D"/>
</g>
<path d="M63.131 14.1728C63.3649 13.7053 63.9283 13.3771 65.0186 12.8537L63.8326 14.4066C63.8326 14.4066 63.3649 15.8092 63.5987 16.2768C63.8326 16.7443 66.4051 17.9132 67.5744 18.3807C68.7437 18.8483 72.9531 19.5496 72.9531 19.5496V20.2509C69.3797 19.5389 66.2714 19.5496 65.0186 19.1155C63.7658 18.6813 62.9807 17.7295 62.513 17.0282C62.0498 16.3337 62.8807 14.6732 63.124 14.1869L63.131 14.1728Z" fill="#B08747"/>
<g filter="url(#filter13_d_78_256)">
<path d="M63.3649 16.5106C62.8737 14.8742 65.0186 12.8537 65.0186 12.8537C65.0186 12.8537 64.15 14.0226 65.0019 15.1079C65.8538 16.1933 65.9006 16.2738 66.6389 16.7443C68.7183 17.8684 70.0838 18.1807 72.9531 18.147V19.5496C69.2975 19.0123 63.856 18.147 63.3649 16.5106Z" fill="#CB9A4D"/>
</g>
<path d="M55.3434 19.1155C55.7609 18.2806 58.4069 15.4581 60.3534 14.5235L56.5959 19.5329C56.5959 19.5329 55.7609 22.0376 56.1784 22.8725C56.5959 23.7074 61.1884 25.7947 63.2759 26.6296C65.3634 27.4645 72.8784 28.7168 72.8784 28.7168V29.9692L63.2759 27.8819C63.2759 27.8819 56.1784 24.9598 55.3434 23.7074C54.5084 22.4551 54.9259 19.9504 55.3434 19.1155Z" fill="#B08747"/>
<g filter="url(#filter14_d_78_256)">
<path d="M55.7609 23.29C55.5146 19.7935 57.9385 17.9067 60.3534 14.5235C58.9736 17.4231 57.9548 19.2021 58.6834 20.7853C59.6071 22.2918 60.2877 22.8672 61.6059 23.7074C65.3181 25.7146 67.7559 26.2724 72.8784 26.2121V28.7168C66.3522 27.7573 61.935 26.641 55.7609 23.29Z" fill="#CB9A4D"/>
</g>
<path d="M104.12 25.7947C103.694 24.7172 102.806 22.1936 99.9459 21.6202L97.8586 23.7074C102.471 24.869 99.5284 28.2994 98.6935 29.1343C97.8586 29.9692 92.4318 31.639 90.3445 32.4739C88.2573 33.3088 80.7432 34.5611 80.7432 34.5611V35.8135H92.4318C92.4318 35.8135 99.5361 33.5115 101.616 32.0564C103.695 30.6014 104.547 26.8722 104.12 25.7947Z" fill="#B08747"/>
<g filter="url(#filter15_d_78_256)">
<path d="M99.9459 27.4645C101.616 23.7074 97.8586 23.7074 97.8586 23.7074C97.8586 23.7074 98.5871 25.0464 97.8586 26.6296C96.935 28.1361 92.0143 29.5517 92.0143 29.5517C92.0143 29.5517 85.8651 32.1167 80.7432 32.0564V34.5611C88.3835 34.8435 98.2761 31.2215 99.9459 27.4645Z" fill="#CB9A4D"/>
</g>
<path d="M49.9585 25.3772C50.3847 24.2997 51.2725 21.7762 54.1333 21.2027L56.2207 23.2899C51.6085 24.4515 54.5508 27.8819 55.3858 28.7168C56.2207 29.5517 61.648 31.2215 63.7354 32.0564C65.8228 32.8913 73.3374 34.1436 73.3374 34.1436V35.396H61.648C61.648 35.396 54.5431 33.094 52.4634 31.6389C50.3837 30.1839 49.5323 26.4547 49.9585 25.3772Z" fill="#B08747"/>
<g filter="url(#filter16_d_78_256)">
<path d="M54.1333 27.047C52.4634 23.2899 56.2207 23.2899 56.2207 23.2899C56.2207 23.2899 55.4921 24.6289 56.2207 26.2121C57.1444 27.7185 62.0654 29.1342 62.0654 29.1342C62.0654 29.1342 68.2151 31.6992 73.3374 31.6389V34.1436C65.6965 34.426 55.8032 30.804 54.1333 27.047Z" fill="#CB9A4D"/>
</g>
<path d="M107.46 34.9786C107.46 34.9786 106.563 29.7077 103.702 29.1343L102.033 31.639C106.645 32.8005 103.702 37.9007 102.033 39.1531C100.363 40.4054 93.2662 41.2403 93.2662 41.2403L81.5776 43.3276V44.5799H93.2662C93.2662 44.5799 102.875 42.6954 104.955 41.2403C107.034 39.7853 107.46 34.9786 107.46 34.9786Z" fill="#B08747"/>
<g filter="url(#filter17_d_78_256)">
<path d="M104.537 35.396C104.525 29.6407 102.033 31.639 102.033 31.639C102.033 31.639 103.285 32.4738 102.45 34.5611C101.615 36.6483 98.2862 38.4381 94.936 39.5705C91.5858 40.7029 85.4713 41.2982 81.5776 40.8229V43.3276C88.7256 44.0556 104.55 41.1513 104.537 35.396Z" fill="#CB9A4D"/>
</g>
<path d="M109.964 44.5799C109.964 44.5799 109.068 39.3091 106.207 38.7356L104.537 41.2403C109.149 42.4019 106.207 47.5021 104.537 48.7544C102.868 50.0068 95.7709 50.8417 95.7709 50.8417L81.5776 50.0068V53.7638C81.5776 53.7638 88.2568 54.1813 95.7709 54.1813C103.285 54.1813 105.38 52.2967 107.46 50.8417C109.539 49.3866 109.964 44.5799 109.964 44.5799Z" fill="#B08747"/>
<g filter="url(#filter18_d_78_256)">
<path d="M107.042 45.8323C107.505 37.4014 104.537 42.0752 104.537 42.0752C104.537 42.0752 105.79 42.9101 104.955 44.9974C104.12 47.0846 102.945 48.2229 97.4407 50.0068C91.9361 51.7907 83.8616 46.7947 81.5776 45.8323V50.0068C88.2389 53.5287 106.579 54.2631 107.042 45.8323Z" fill="#CB9A4D"/>
</g>
<path d="M44.8424 44.5799C44.8424 44.5799 45.7389 39.3091 48.5995 38.7356L50.2693 41.2403C45.6574 42.4019 48.5995 47.5021 50.2693 48.7544C51.9391 50.0068 59.0357 50.8417 59.0357 50.8417L73.229 50.0068V53.7638C73.229 53.7638 66.5498 54.1813 59.0357 54.1813C51.5216 54.1813 49.4267 52.2967 47.3471 50.8417C45.2675 49.3866 44.8424 44.5799 44.8424 44.5799Z" fill="#B08747"/>
<g filter="url(#filter19_d_78_256)">
<path d="M47.7646 45.8323C47.3016 37.4014 50.2693 42.0752 50.2693 42.0752C50.2693 42.0752 49.0169 42.9101 49.8518 44.9974C50.6867 47.0846 51.8613 48.2229 57.3659 50.0068C62.8705 51.7907 70.9451 46.7947 73.229 45.8323V50.0068C66.5677 53.5287 48.2275 54.2631 47.7646 45.8323Z" fill="#CB9A4D"/>
</g>
<path d="M47.3471 35.396C47.3471 35.396 48.2436 30.1252 51.1042 29.5517L52.774 32.0564C48.1621 33.2179 51.1042 38.3181 52.774 39.5705C54.4438 40.8228 61.5404 41.6577 61.5404 41.6577L73.229 43.745V44.9973H61.5404C61.5404 44.9973 51.9314 43.1128 49.8518 41.6577C47.7722 40.2027 47.3471 35.396 47.3471 35.396Z" fill="#B08747"/>
<g filter="url(#filter20_d_78_256)">
<path d="M50.2693 35.8134C50.2819 30.0582 52.774 32.0564 52.774 32.0564C52.774 32.0564 51.5216 32.8913 52.3565 34.9785C53.1914 37.0658 56.5204 38.8556 59.8706 39.9879C63.2208 41.1203 69.3353 41.7157 73.229 41.2403V43.745C66.0811 44.473 50.2566 41.5687 50.2693 35.8134Z" fill="#CB9A4D"/>
</g>
<path d="M74.483 39.8586C73.8818 37.2137 73.9684 35.8709 74.483 33.5968C76.7575 33.2381 78.0994 33.188 80.7448 33.5968C81.3515 36.2913 81.1249 37.5694 80.7448 39.8586H74.483Z" fill="#E8C987"/>
<path d="M74.483 46.9552C73.8818 44.3104 73.9684 42.9675 74.483 40.6935C76.7575 40.3348 78.0994 40.2847 80.7448 40.6935C81.3515 43.388 81.1249 44.6661 80.7448 46.9552H74.483Z" fill="#E8C987"/>
<path d="M74.9005 54.0519C74.2993 51.407 73.9684 50.0642 74.483 47.7901C76.7575 47.4314 78.0994 47.3813 80.7448 47.7901C81.3515 50.4846 80.7074 51.7627 80.3273 54.0519H74.9005Z" fill="#E8C987"/>
<path d="M74.9005 54.0519C74.2993 51.407 73.9684 50.0642 74.483 47.7901C76.7575 47.4314 78.0994 47.3813 80.7448 47.7901C81.3515 50.4846 80.7074 51.7627 80.3273 54.0519M74.9005 54.0519V61.566C76.6918 64.5672 78.6559 64.6175 80.3273 61.566V54.0519M74.9005 54.0519H80.3273M74.483 26.5002C73.9684 28.7743 73.8818 30.1171 74.483 32.7619H80.7448C81.1249 30.4728 81.3515 29.1947 80.7448 26.5002C78.0994 26.0914 76.7575 26.1415 74.483 26.5002ZM74.483 33.5968C73.9684 35.8709 73.8818 37.2137 74.483 39.8586H80.7448C81.1249 37.5694 81.3515 36.2913 80.7448 33.5968C78.0994 33.188 76.7575 33.2381 74.483 33.5968ZM74.483 40.6935C73.9684 42.9675 73.8818 44.3104 74.483 46.9552H80.7448C81.1249 44.6661 81.3515 43.388 80.7448 40.6935C78.0994 40.2847 76.7575 40.3348 74.483 40.6935Z" stroke="black" stroke-width="0.8349"/>
<path d="M79.9084 54.5987H75.3164V61.2779C77.2294 63.7912 78.2393 63.8867 79.9084 61.2779V54.5987Z" fill="#E8C987" stroke="#E8C987" stroke-width="0.8349"/>
<path d="M80.3258 27.047H74.8989C74.4815 27.047 74.8989 32.0564 74.8989 32.0564C77.0081 33.0368 80.3258 32.4738 80.3258 32.0564C80.3257 31.6389 80.7432 27.047 80.3258 27.047Z" fill="#E8C987" stroke="#E8C987" stroke-width="0.8349"/>
<path d="M82.935 13.6886C79.1805 15.2123 77.1234 15.3647 73.5424 13.6886L70.7246 18.2805L73.5424 26.2121H81.9958L85.7528 18.2805L82.935 13.6886Z" fill="#EECA82" stroke="black" stroke-opacity="0.52" stroke-width="0.8349"/>
<path d="M14 123.818C15.4634 123.86 15.9715 124.106 16.5 124.818C17.4274 126.145 17.7093 126.906 17.5 128.318C19.4422 130.054 20.0465 131.166 20.5 133.318C22.1112 134.9 22.4848 135.775 22.5 137.318L23.5 139.318L25 139.818C25.3696 140.93 25.3991 141.45 24.5 141.818L20.5 139.318L19 135.318C17.9003 134.719 17.3761 134.121 16.5 132.818V129.318L14 127.818H12.5L12 135.318L13.5 138.818V143.818H18L19 144.818L16.5 146.818H18.75H21L23 144.818L24.5 145.818L23.5 147.318L25 148.318L24.5 149.818L22.5 150.318C21.0136 150.779 20.2448 150.823 19 150.318L15 148.818L17 152.068L19 155.318C18.8014 156.971 18.3109 157.371 16.5 156.818L14.5714 153.818L12 149.818V145.818L7.5 138.818V127.818L6 125.818L7.5 121.818L9.5 123.818C10.569 124.935 11.119 125.239 12 125.318L14 123.818Z" fill="#E4C690"/>
<path d="M20.5 133.318C20.0465 131.166 19.4422 130.054 17.5 128.318C17.7093 126.906 17.4274 126.145 16.5 124.818C15.9715 124.106 15.4634 123.86 14 123.818L12 125.318C11.119 125.239 10.569 124.935 9.5 123.818L7.5 121.818L6 125.818L7.5 127.818V138.818M20.5 133.318C22.1112 134.9 22.4849 135.775 22.5 137.318L23.5 139.318L25 139.818C25.3696 140.93 25.3991 141.45 24.5 141.818L20.5 139.318L19 135.318M20.5 133.318L19 135.318M19 135.318C17.9003 134.719 17.3761 134.121 16.5 132.818V129.318L14 127.818H12.5L12 135.318M12 135.318L13.5 138.818V143.818H18L19 144.818L16.5 146.818H18.75M12 135.318L7.5 138.818M21 146.818L23 144.818L24.5 145.818L23.5 147.318M21 146.818L23.5 147.318M21 146.818L22.5 150.318M21 146.818H18.75M23.5 147.318L25 148.318L24.5 149.818L22.5 150.318M22.5 150.318C21.0136 150.779 20.2448 150.823 19 150.318M19 150.318L15 148.818L17 152.068M19 150.318L18.75 146.818M7.5 138.818L12 145.818V149.818L14.5714 153.818M17 152.068L19 155.318C18.8014 156.971 18.3109 157.371 16.5 156.818L14.5714 153.818M17 152.068L14.5714 153.818" stroke="black"/>
<path d="M13.4991 121.818C10.1494 120.901 9.18597 121.165 9.49905 123.318C9.87083 124.67 10.312 125.209 12 125.318L14 123.818L13.4991 121.818Z" fill="#D2B675" stroke="black"/>
<path d="M15 87.8179C16.1899 83.6433 16.6261 81.5765 17 78.3179L23.5 77.8179L21.5 83.3179L20.5 93.3179L18.5 99.3179C17.2196 105.547 16.0309 108.512 13.5 113.318L13 121.818C10.0433 120.907 9.55564 121.652 9 123.318L7.5 121.818L10 110.318C10.9595 102.097 11.635 97.4077 15 87.8179Z" fill="url(#paint15_linear_78_256)" stroke="black"/>
<path d="M18.5001 87.3179C15.8735 92.2997 15.407 95.158 15.5001 100.318C18.2223 95.3736 18.7477 92.5162 18.5001 87.3179Z" fill="white"/>
<path d="M27.5 17.3179H25.5L28.5 24.3179H29.5C30.0829 20.6008 29.0591 19.491 27.5 17.3179Z" fill="#F8C47A" stroke="black"/>
<path d="M24.5 18.3179V16.8179C24.5 15.3179 28.5 24.3179 28.5 24.3179C25.2957 27.5661 25.0839 30.0214 24.5 34.3179L23.5 68.8179L26.5 77.3179L19.5 78.3179C17.1932 78.5963 16.1894 78.197 15.5 75.3179L18.5 66.3179C19.5629 59.2029 19.6758 55.6977 19.5 49.8179L21.5 18.8179C21.9463 18.4974 22.6472 18.3963 24.5 18.3179Z" fill="url(#paint16_linear_78_256)" stroke="black"/>
<path d="M38 16.8179H29.5C31.0337 19.4325 31.5208 21.0646 30.5 24.8179C33.3806 28.3669 34.7328 31.0233 36.5 37.3179L36 24.8179L38 17.8179V16.8179Z" fill="url(#paint17_linear_78_256)"/>
<path d="M46.0004 33.3179L46.5004 16.3179L46.0004 14.8179C48.5 13.3179 46.0004 12.8179 46.0004 12.8179L40 13.3179C38.385 14.0049 37.5172 13.9638 36 12.8179L28.0004 13.3179C24.6262 13.7386 23.3185 14.1941 24.5004 16.3179H28.0004C30.4771 19.9084 30.6933 21.734 30.0004 24.8179C32.8318 28.3698 34.091 31.2273 35.5004 38.3179C37.0143 40.5516 37.4376 41.9208 42.0004 43.3179C44.5148 43.2797 45.2832 40.6259 46.0004 33.3179Z" stroke="black"/>
<path d="M41.0006 14.8179H45.0006L44.5 32.3179L42.5 40.8179L41.0006 41.3179L36.5001 37.8179L36.0006 27.8179C35.6564 22.585 36.1995 19.7008 41.0006 14.8179Z" fill="url(#paint18_linear_78_256)"/>
<path d="M141 123.818C139.537 123.86 139.029 124.106 138.5 124.818C137.573 126.145 137.291 126.906 137.5 128.318C135.558 130.054 134.954 131.166 134.5 133.318C132.889 134.9 132.516 135.775 132.501 137.318L131.501 139.318L130.001 139.818C129.631 140.93 129.602 141.45 130.501 141.818L134.5 139.318L136 135.318C137.1 134.719 137.624 134.121 138.5 132.818V129.318L141 127.818H142.5L143 135.318L141.5 138.818V143.818H137L136 144.818L138.5 146.818H136.25H134L132.001 144.818L130.501 145.818L131.501 147.318L130.001 148.318L130.501 149.818L132.501 150.318C133.987 150.779 134.756 150.823 136 150.318L140 148.818L138 152.068L136 155.318C136.199 156.971 136.69 157.371 138.5 156.818L140.429 153.818L143 149.818V145.818L147.5 138.818V127.818L149 125.818L147.5 121.818L145.5 123.818C144.431 124.935 143.881 125.239 143 125.318L141 123.818Z" fill="#E4C690"/>
<path d="M134.5 133.318C134.954 131.166 135.558 130.054 137.5 128.318C137.291 126.906 137.573 126.145 138.5 124.818C139.029 124.106 139.537 123.86 141 123.818L143 125.318C143.881 125.239 144.431 124.935 145.5 123.818L147.5 121.818L149 125.818L147.5 127.818V138.818M134.5 133.318C132.889 134.9 132.516 135.775 132.501 137.318L131.501 139.318L130.001 139.818C129.631 140.93 129.602 141.45 130.501 141.818L134.5 139.318L136 135.318M134.5 133.318L136 135.318M136 135.318C137.1 134.719 137.624 134.121 138.5 132.818V129.318L141 127.818H142.5L143 135.318M143 135.318L141.5 138.818V143.818H137L136 144.818L138.5 146.818H136.25M143 135.318L147.5 138.818M134 146.818L132.001 144.818L130.501 145.818L131.501 147.318M134 146.818L131.501 147.318M134 146.818L132.501 150.318M134 146.818H136.25M131.501 147.318L130.001 148.318L130.501 149.818L132.501 150.318M132.501 150.318C133.987 150.779 134.756 150.823 136 150.318M136 150.318L140 148.818L138 152.068M136 150.318L136.25 146.818M147.5 138.818L143 145.818V149.818L140.429 153.818M138 152.068L136 155.318C136.199 156.971 136.69 157.371 138.5 156.818L140.429 153.818M138 152.068L140.429 153.818" stroke="black"/>
<path d="M141.501 121.818C144.851 120.901 145.814 121.165 145.501 123.318C145.129 124.67 144.688 125.209 143 125.318L141 123.818L141.501 121.818Z" fill="#D2B675" stroke="black"/>
<path d="M140 87.8179C138.81 83.6433 138.374 81.5765 138 78.3179L131.501 77.8179L133.5 83.3179L134.5 93.3179L136.5 99.3179C137.781 105.547 138.969 108.512 141.5 113.318L142 121.818C144.957 120.907 145.444 121.652 146 123.318L147.5 121.818L145 110.318C144.041 102.097 143.365 97.4077 140 87.8179Z" fill="url(#paint19_linear_78_256)" stroke="black"/>
<path d="M136.5 87.3179C139.127 92.2997 139.594 95.158 139.5 100.318C136.778 95.3736 136.253 92.5162 136.5 87.3179Z" fill="white"/>
<path d="M127.501 17.3179H129.501L126.501 24.3179H125.501C124.918 20.6008 125.942 19.491 127.501 17.3179Z" fill="#F8C47A" stroke="black"/>
<path d="M130.5 18.3179V16.8179C130.5 15.3179 126.5 24.3179 126.5 24.3179C129.705 27.5661 129.916 30.0214 130.5 34.3179L131.5 68.8179L128.5 77.3179L135.5 78.3179C137.807 78.5963 138.811 78.197 139.5 75.3179L136.5 66.3179C135.437 59.2029 135.324 55.6977 135.5 49.8179L133.5 18.8179C133.054 18.4974 132.353 18.3963 130.5 18.3179Z" fill="url(#paint20_linear_78_256)" stroke="black"/>
<path d="M117.001 16.8179H125.501C123.967 19.4325 123.48 21.0646 124.501 24.8179C121.621 28.3669 120.268 31.0233 118.501 37.3179L119.001 24.8179L117.001 17.8179V16.8179Z" fill="url(#paint21_linear_78_256)"/>
<path d="M109.001 33.3179L108.501 16.3179L109.001 14.8179C106.501 13.3179 109.001 12.8179 109.001 12.8179L115.001 13.3179C116.616 14.0049 117.484 13.9638 119.001 12.8179L127 13.3179C130.374 13.7386 131.682 14.1941 130.5 16.3179H127C124.524 19.9084 124.307 21.734 125 24.8179C122.169 28.3698 120.91 31.2273 119.5 38.3179C117.987 40.5516 117.563 41.9208 113.001 43.3179C110.486 43.2797 109.718 40.6259 109.001 33.3179Z" stroke="black"/>
<path d="M114.001 14.8179H110.001L110.501 32.3179L112.501 40.8179L114.001 41.3179L118.501 37.8179L119 27.8179C119.345 22.585 118.801 19.7008 114.001 14.8179Z" fill="url(#paint22_linear_78_256)"/>
<defs>
<filter id="filter0_d_78_256" x="33.0579" y="95.9262" width="88.8223" height="50.094" filterUnits="userSpaceOnUse" color-interpolation-filters="sRGB">
<feFlood flood-opacity="0" result="BackgroundImageFix"/>
<feColorMatrix in="SourceAlpha" type="matrix" values="0 0 0 0 0 0 0 0 0 0 0 0 0 0 0 0 0 0 127 0" result="hardAlpha"/>
<feOffset dy="3.3396"/>
<feGaussianBlur stdDeviation="1.6698"/>
<feComposite in2="hardAlpha" operator="out"/>
<feColorMatrix type="matrix" values="0 0 0 0 0 0 0 0 0 0 0 0 0 0 0 0 0 0 0.25 0"/>
<feBlend mode="normal" in2="BackgroundImageFix" result="effect1_dropShadow_78_256"/>
<feBlend mode="normal" in="SourceGraphic" in2="effect1_dropShadow_78_256" result="shape"/>
</filter>
<filter id="filter1_d_78_256" x="24.2429" y="131.583" width="30.5142" height="95.3296" filterUnits="userSpaceOnUse" color-interpolation-filters="sRGB">
<feFlood flood-opacity="0" result="BackgroundImageFix"/>
<feColorMatrix in="SourceAlpha" type="matrix" values="0 0 0 0 0 0 0 0 0 0 0 0 0 0 0 0 0 0 127 0" result="hardAlpha"/>
<feOffset dy="3.3396"/>
<feGaussianBlur stdDeviation="1.6698"/>
<feComposite in2="hardAlpha" operator="out"/>
<feColorMatrix type="matrix" values="0 0 0 0 0 0 0 0 0 0 0 0 0 0 0 0 0 0 0.34 0"/>
<feBlend mode="normal" in2="BackgroundImageFix" result="effect1_dropShadow_78_256"/>
<feBlend mode="normal" in="SourceGraphic" in2="effect1_dropShadow_78_256" result="shape"/>
</filter>
<filter id="filter2_d_78_256" x="100.243" y="131.583" width="30.5142" height="95.3296" filterUnits="userSpaceOnUse" color-interpolation-filters="sRGB">
<feFlood flood-opacity="0" result="BackgroundImageFix"/>
<feColorMatrix in="SourceAlpha" type="matrix" values="0 0 0 0 0 0 0 0 0 0 0 0 0 0 0 0 0 0 127 0" result="hardAlpha"/>
<feOffset dy="3.3396"/>
<feGaussianBlur stdDeviation="1.6698"/>
<feComposite in2="hardAlpha" operator="out"/>
<feColorMatrix type="matrix" values="0 0 0 0 0 0 0 0 0 0 0 0 0 0 0 0 0 0 0.34 0"/>
<feBlend mode="normal" in2="BackgroundImageFix" result="effect1_dropShadow_78_256"/>
<feBlend mode="normal" in="SourceGraphic" in2="effect1_dropShadow_78_256" result="shape"/>
</filter>
<filter id="filter3_d_78_256" x="77.8245" y="53.3756" width="38.5693" height="26.0497" filterUnits="userSpaceOnUse" color-interpolation-filters="sRGB">
<feFlood flood-opacity="0" result="BackgroundImageFix"/>
<feColorMatrix in="SourceAlpha" type="matrix" values="0 0 0 0 0 0 0 0 0 0 0 0 0 0 0 0 0 0 127 0" result="hardAlpha"/>
<feOffset dy="3.3396"/>
<feGaussianBlur stdDeviation="1.6698"/>
<feComposite in2="hardAlpha" operator="out"/>
<feColorMatrix type="matrix" values="0 0 0 0 0 0 0 0 0 0 0 0 0 0 0 0 0 0 0.42 0"/>
<feBlend mode="normal" in2="BackgroundImageFix" result="effect1_dropShadow_78_256"/>
<feBlend mode="normal" in="SourceGraphic" in2="effect1_dropShadow_78_256" result="shape"/>
</filter>
<filter id="filter4_d_78_256" x="39.4163" y="52.9525" width="38.5723" height="26.2756" filterUnits="userSpaceOnUse" color-interpolation-filters="sRGB">
<feFlood flood-opacity="0" result="BackgroundImageFix"/>
<feColorMatrix in="SourceAlpha" type="matrix" values="0 0 0 0 0 0 0 0 0 0 0 0 0 0 0 0 0 0 127 0" result="hardAlpha"/>
<feOffset dy="3.3396"/>
<feGaussianBlur stdDeviation="1.6698"/>
<feComposite in2="hardAlpha" operator="out"/>
<feColorMatrix type="matrix" values="0 0 0 0 0 0 0 0 0 0 0 0 0 0 0 0 0 0 0.42 0"/>
<feBlend mode="normal" in2="BackgroundImageFix" result="effect1_dropShadow_78_256"/>
<feBlend mode="normal" in="SourceGraphic" in2="effect1_dropShadow_78_256" result="shape"/>
</filter>
<filter id="filter5_d_78_256" x="76.8796" y="45.6109" width="37.8413" height="24.7534" filterUnits="userSpaceOnUse" color-interpolation-filters="sRGB">
<feFlood flood-opacity="0" result="BackgroundImageFix"/>
<feColorMatrix in="SourceAlpha" type="matrix" values="0 0 0 0 0 0 0 0 0 0 0 0 0 0 0 0 0 0 127 0" result="hardAlpha"/>
<feOffset dy="3.3396"/>
<feGaussianBlur stdDeviation="1.6698"/>
<feComposite in2="hardAlpha" operator="out"/>
<feColorMatrix type="matrix" values="0 0 0 0 0 0 0 0 0 0 0 0 0 0 0 0 0 0 0.42 0"/>
<feBlend mode="normal" in2="BackgroundImageFix" result="effect1_dropShadow_78_256"/>
<feBlend mode="normal" in="SourceGraphic" in2="effect1_dropShadow_78_256" result="shape"/>
</filter>
<filter id="filter6_d_78_256" x="41.0857" y="45.6174" width="37.8652" height="24.4269" filterUnits="userSpaceOnUse" color-interpolation-filters="sRGB">
<feFlood flood-opacity="0" result="BackgroundImageFix"/>
<feColorMatrix in="SourceAlpha" type="matrix" values="0 0 0 0 0 0 0 0 0 0 0 0 0 0 0 0 0 0 127 0" result="hardAlpha"/>
<feOffset dy="3.3396"/>
<feGaussianBlur stdDeviation="1.6698"/>
<feComposite in2="hardAlpha" operator="out"/>
<feColorMatrix type="matrix" values="0 0 0 0 0 0 0 0 0 0 0 0 0 0 0 0 0 0 0.42 0"/>
<feBlend mode="normal" in2="BackgroundImageFix" result="effect1_dropShadow_78_256"/>
<feBlend mode="normal" in="SourceGraphic" in2="effect1_dropShadow_78_256" result="shape"/>
</filter>
<filter id="filter7_d_78_256" x="78.2385" y="63.6697" width="39.7417" height="27.3576" filterUnits="userSpaceOnUse" color-interpolation-filters="sRGB">
<feFlood flood-opacity="0" result="BackgroundImageFix"/>
<feColorMatrix in="SourceAlpha" type="matrix" values="0 0 0 0 0 0 0 0 0 0 0 0 0 0 0 0 0 0 127 0" result="hardAlpha"/>
<feOffset dy="3.3396"/>
<feGaussianBlur stdDeviation="1.6698"/>
<feComposite in2="hardAlpha" operator="out"/>
<feColorMatrix type="matrix" values="0 0 0 0 0 0 0 0 0 0 0 0 0 0 0 0 0 0 0.42 0"/>
<feBlend mode="normal" in2="BackgroundImageFix" result="effect1_dropShadow_78_256"/>
<feBlend mode="normal" in="SourceGraphic" in2="effect1_dropShadow_78_256" result="shape"/>
</filter>
<filter id="filter8_d_78_256" x="37.7463" y="63.674" width="39.7412" height="27.2428" filterUnits="userSpaceOnUse" color-interpolation-filters="sRGB">
<feFlood flood-opacity="0" result="BackgroundImageFix"/>
<feColorMatrix in="SourceAlpha" type="matrix" values="0 0 0 0 0 0 0 0 0 0 0 0 0 0 0 0 0 0 127 0" result="hardAlpha"/>
<feOffset dy="3.3396"/>
<feGaussianBlur stdDeviation="1.6698"/>
<feComposite in2="hardAlpha" operator="out"/>
<feColorMatrix type="matrix" values="0 0 0 0 0 0 0 0 0 0 0 0 0 0 0 0 0 0 0.42 0"/>
<feBlend mode="normal" in2="BackgroundImageFix" result="effect1_dropShadow_78_256"/>
<feBlend mode="normal" in="SourceGraphic" in2="effect1_dropShadow_78_256" result="shape"/>
</filter>
<filter id="filter9_d_78_256" x="78.656" y="6.59198" width="23.812" height="20.8725" filterUnits="userSpaceOnUse" color-interpolation-filters="sRGB">
<feFlood flood-opacity="0" result="BackgroundImageFix"/>
<feColorMatrix in="SourceAlpha" type="matrix" values="0 0 0 0 0 0 0 0 0 0 0 0 0 0 0 0 0 0 127 0" result="hardAlpha"/>
<feOffset dy="-3.3396"/>
<feGaussianBlur stdDeviation="1.6698"/>
<feComposite in2="hardAlpha" operator="out"/>
<feColorMatrix type="matrix" values="0 0 0 0 0 0 0 0 0 0 0 0 0 0 0 0 0 0 0.7 0"/>
<feBlend mode="normal" in2="BackgroundImageFix" result="effect1_dropShadow_78_256"/>
<feBlend mode="normal" in="SourceGraphic" in2="effect1_dropShadow_78_256" result="shape"/>
</filter>
<filter id="filter10_d_78_256" x="79.7075" y="9.53083" width="13.3981" height="10.4363" filterUnits="userSpaceOnUse" color-interpolation-filters="sRGB">
<feFlood flood-opacity="0" result="BackgroundImageFix"/>
<feColorMatrix in="SourceAlpha" type="matrix" values="0 0 0 0 0 0 0 0 0 0 0 0 0 0 0 0 0 0 127 0" result="hardAlpha"/>
<feOffset dy="-1.87018"/>
<feGaussianBlur stdDeviation="0.935088"/>
<feComposite in2="hardAlpha" operator="out"/>
<feColorMatrix type="matrix" values="0 0 0 0 0 0 0 0 0 0 0 0 0 0 0 0 0 0 0.7 0"/>
<feBlend mode="normal" in2="BackgroundImageFix" result="effect1_dropShadow_78_256"/>
<feBlend mode="normal" in="SourceGraphic" in2="effect1_dropShadow_78_256" result="shape"/>
</filter>
<filter id="filter11_d_78_256" x="79.7075" y="1.59925" width="14.735" height="7.94314" filterUnits="userSpaceOnUse" color-interpolation-filters="sRGB">
<feFlood flood-opacity="0" result="BackgroundImageFix"/>
<feColorMatrix in="SourceAlpha" type="matrix" values="0 0 0 0 0 0 0 0 0 0 0 0 0 0 0 0 0 0 127 0" result="hardAlpha"/>
<feOffset dy="-1.87018"/>
<feGaussianBlur stdDeviation="0.935088"/>
<feComposite in2="hardAlpha" operator="out"/>
<feColorMatrix type="matrix" values="0 0 0 0 0 0 0 0 0 0 0 0 0 0 0 0 0 0 0.7 0"/>
<feBlend mode="normal" in2="BackgroundImageFix" result="effect1_dropShadow_78_256"/>
<feBlend mode="normal" in="SourceGraphic" in2="effect1_dropShadow_78_256" result="shape"/>
</filter>
<filter id="filter12_d_78_256" x="61.183" y="1.59925" width="14.734" height="7.94314" filterUnits="userSpaceOnUse" color-interpolation-filters="sRGB">
<feFlood flood-opacity="0" result="BackgroundImageFix"/>
<feColorMatrix in="SourceAlpha" type="matrix" values="0 0 0 0 0 0 0 0 0 0 0 0 0 0 0 0 0 0 127 0" result="hardAlpha"/>
<feOffset dy="-1.87018"/>
<feGaussianBlur stdDeviation="0.935088"/>
<feComposite in2="hardAlpha" operator="out"/>
<feColorMatrix type="matrix" values="0 0 0 0 0 0 0 0 0 0 0 0 0 0 0 0 0 0 0.7 0"/>
<feBlend mode="normal" in2="BackgroundImageFix" result="effect1_dropShadow_78_256"/>
<feBlend mode="normal" in="SourceGraphic" in2="effect1_dropShadow_78_256" result="shape"/>
</filter>
<filter id="filter13_d_78_256" x="61.4218" y="9.11335" width="13.4015" height="10.4363" filterUnits="userSpaceOnUse" color-interpolation-filters="sRGB">
<feFlood flood-opacity="0" result="BackgroundImageFix"/>
<feColorMatrix in="SourceAlpha" type="matrix" values="0 0 0 0 0 0 0 0 0 0 0 0 0 0 0 0 0 0 127 0" result="hardAlpha"/>
<feOffset dy="-1.87018"/>
<feGaussianBlur stdDeviation="0.935088"/>
<feComposite in2="hardAlpha" operator="out"/>
<feColorMatrix type="matrix" values="0 0 0 0 0 0 0 0 0 0 0 0 0 0 0 0 0 0 0.7 0"/>
<feBlend mode="normal" in2="BackgroundImageFix" result="effect1_dropShadow_78_256"/>
<feBlend mode="normal" in="SourceGraphic" in2="effect1_dropShadow_78_256" result="shape"/>
</filter>
<filter id="filter14_d_78_256" x="52.4041" y="7.84433" width="23.814" height="20.8725" filterUnits="userSpaceOnUse" color-interpolation-filters="sRGB">
<feFlood flood-opacity="0" result="BackgroundImageFix"/>
<feColorMatrix in="SourceAlpha" type="matrix" values="0 0 0 0 0 0 0 0 0 0 0 0 0 0 0 0 0 0 127 0" result="hardAlpha"/>
<feOffset dy="-3.3396"/>
<feGaussianBlur stdDeviation="1.6698"/>
<feComposite in2="hardAlpha" operator="out"/>
<feColorMatrix type="matrix" values="0 0 0 0 0 0 0 0 0 0 0 0 0 0 0 0 0 0 0.7 0"/>
<feBlend mode="normal" in2="BackgroundImageFix" result="effect1_dropShadow_78_256"/>
<feBlend mode="normal" in="SourceGraphic" in2="effect1_dropShadow_78_256" result="shape"/>
</filter>
<filter id="filter15_d_78_256" x="77.4036" y="17.0282" width="26.3096" height="17.5484" filterUnits="userSpaceOnUse" color-interpolation-filters="sRGB">
<feFlood flood-opacity="0" result="BackgroundImageFix"/>
<feColorMatrix in="SourceAlpha" type="matrix" values="0 0 0 0 0 0 0 0 0 0 0 0 0 0 0 0 0 0 127 0" result="hardAlpha"/>
<feOffset dy="-3.3396"/>
<feGaussianBlur stdDeviation="1.6698"/>
<feComposite in2="hardAlpha" operator="out"/>
<feColorMatrix type="matrix" values="0 0 0 0 0 0 0 0 0 0 0 0 0 0 0 0 0 0 0.7 0"/>
<feBlend mode="normal" in2="BackgroundImageFix" result="effect1_dropShadow_78_256"/>
<feBlend mode="normal" in="SourceGraphic" in2="effect1_dropShadow_78_256" result="shape"/>
</filter>
<filter id="filter16_d_78_256" x="50.366" y="16.6107" width="26.311" height="17.5484" filterUnits="userSpaceOnUse" color-interpolation-filters="sRGB">
<feFlood flood-opacity="0" result="BackgroundImageFix"/>
<feColorMatrix in="SourceAlpha" type="matrix" values="0 0 0 0 0 0 0 0 0 0 0 0 0 0 0 0 0 0 127 0" result="hardAlpha"/>
<feOffset dy="-3.3396"/>
<feGaussianBlur stdDeviation="1.6698"/>
<feComposite in2="hardAlpha" operator="out"/>
<feColorMatrix type="matrix" values="0 0 0 0 0 0 0 0 0 0 0 0 0 0 0 0 0 0 0.7 0"/>
<feBlend mode="normal" in2="BackgroundImageFix" result="effect1_dropShadow_78_256"/>
<feBlend mode="normal" in="SourceGraphic" in2="effect1_dropShadow_78_256" result="shape"/>
</filter>
<filter id="filter17_d_78_256" x="78.238" y="24.6241" width="29.6392" height="18.8137" filterUnits="userSpaceOnUse" color-interpolation-filters="sRGB">
<feFlood flood-opacity="0" result="BackgroundImageFix"/>
<feColorMatrix in="SourceAlpha" type="matrix" values="0 0 0 0 0 0 0 0 0 0 0 0 0 0 0 0 0 0 127 0" result="hardAlpha"/>
<feOffset dy="-3.3396"/>
<feGaussianBlur stdDeviation="1.6698"/>
<feComposite in2="hardAlpha" operator="out"/>
<feColorMatrix type="matrix" values="0 0 0 0 0 0 0 0 0 0 0 0 0 0 0 0 0 0 0.7 0"/>
<feBlend mode="normal" in2="BackgroundImageFix" result="effect1_dropShadow_78_256"/>
<feBlend mode="normal" in="SourceGraphic" in2="effect1_dropShadow_78_256" result="shape"/>
</filter>
<filter id="filter18_d_78_256" x="78.238" y="34.104" width="32.1929" height="18.3932" filterUnits="userSpaceOnUse" color-interpolation-filters="sRGB">
<feFlood flood-opacity="0" result="BackgroundImageFix"/>
<feColorMatrix in="SourceAlpha" type="matrix" values="0 0 0 0 0 0 0 0 0 0 0 0 0 0 0 0 0 0 127 0" result="hardAlpha"/>
<feOffset dy="-3.3396"/>
<feGaussianBlur stdDeviation="1.6698"/>
<feComposite in2="hardAlpha" operator="out"/>
<feColorMatrix type="matrix" values="0 0 0 0 0 0 0 0 0 0 0 0 0 0 0 0 0 0 0.7 0"/>
<feBlend mode="normal" in2="BackgroundImageFix" result="effect1_dropShadow_78_256"/>
<feBlend mode="normal" in="SourceGraphic" in2="effect1_dropShadow_78_256" result="shape"/>
</filter>
<filter id="filter19_d_78_256" x="44.3757" y="34.104" width="32.1929" height="18.3932" filterUnits="userSpaceOnUse" color-interpolation-filters="sRGB">
<feFlood flood-opacity="0" result="BackgroundImageFix"/>
<feColorMatrix in="SourceAlpha" type="matrix" values="0 0 0 0 0 0 0 0 0 0 0 0 0 0 0 0 0 0 127 0" result="hardAlpha"/>
<feOffset dy="-3.3396"/>
<feGaussianBlur stdDeviation="1.6698"/>
<feComposite in2="hardAlpha" operator="out"/>
<feColorMatrix type="matrix" values="0 0 0 0 0 0 0 0 0 0 0 0 0 0 0 0 0 0 0.7 0"/>
<feBlend mode="normal" in2="BackgroundImageFix" result="effect1_dropShadow_78_256"/>
<feBlend mode="normal" in="SourceGraphic" in2="effect1_dropShadow_78_256" result="shape"/>
</filter>
<filter id="filter20_d_78_256" x="46.9294" y="25.0416" width="29.6392" height="18.8137" filterUnits="userSpaceOnUse" color-interpolation-filters="sRGB">
<feFlood flood-opacity="0" result="BackgroundImageFix"/>
<feColorMatrix in="SourceAlpha" type="matrix" values="0 0 0 0 0 0 0 0 0 0 0 0 0 0 0 0 0 0 127 0" result="hardAlpha"/>
<feOffset dy="-3.3396"/>
<feGaussianBlur stdDeviation="1.6698"/>
<feComposite in2="hardAlpha" operator="out"/>
<feColorMatrix type="matrix" values="0 0 0 0 0 0 0 0 0 0 0 0 0 0 0 0 0 0 0.7 0"/>
<feBlend mode="normal" in2="BackgroundImageFix" result="effect1_dropShadow_78_256"/>
<feBlend mode="normal" in="SourceGraphic" in2="effect1_dropShadow_78_256" result="shape"/>
</filter>
<linearGradient id="paint0_linear_78_256" x1="77.6876" y1="107.615" x2="77.6876" y2="134.044" gradientUnits="userSpaceOnUse">
<stop stop-color="#C78620"/>
<stop offset="1" stop-color="#B5660D"/>
</linearGradient>
<linearGradient id="paint1_linear_78_256" x1="111.026" y1="128.07" x2="101.425" y2="139.341" gradientUnits="userSpaceOnUse">
<stop stop-color="#E9D1A0"/>
<stop offset="1" stop-color="#C78F39"/>
</linearGradient>
<linearGradient id="paint2_linear_78_256" x1="44.2342" y1="127.673" x2="54.6307" y2="139.044" gradientUnits="userSpaceOnUse">
<stop stop-color="#E9D1A0"/>
<stop offset="1" stop-color="#C78F39"/>
</linearGradient>
<linearGradient id="paint3_linear_78_256" x1="58.4274" y1="141.011" x2="73.0381" y2="151.03" gradientUnits="userSpaceOnUse">
<stop stop-color="#D59E2E"/>
<stop offset="1" stop-color="#B5650C"/>
</linearGradient>
<linearGradient id="paint4_linear_78_256" x1="96.4154" y1="141.014" x2="81.8101" y2="151.034" gradientUnits="userSpaceOnUse">
<stop stop-color="#D59E2E"/>
<stop offset="1" stop-color="#B5650C"/>
</linearGradient>
<linearGradient id="paint5_linear_78_256" x1="46.3213" y1="100.101" x2="70.5334" y2="136.419" gradientUnits="userSpaceOnUse">
<stop stop-color="#B4640C"/>
<stop offset="1" stop-color="#DEAE38"/>
</linearGradient>
<linearGradient id="paint6_linear_78_256" x1="62.1843" y1="108.032" x2="43.0015" y2="106.869" gradientUnits="userSpaceOnUse">
<stop offset="0.5" stop-color="#CF9435"/>
<stop offset="1" stop-color="#E8C25D"/>
</linearGradient>
<linearGradient id="paint7_linear_78_256" x1="108.616" y1="100.101" x2="84.4046" y2="136.421" gradientUnits="userSpaceOnUse">
<stop stop-color="#B4640C"/>
<stop offset="1" stop-color="#DEAE38"/>
</linearGradient>
<linearGradient id="paint8_linear_78_256" x1="92.7515" y1="108.032" x2="111.936" y2="106.869" gradientUnits="userSpaceOnUse">
<stop offset="0.5" stop-color="#CF9435"/>
<stop offset="1" stop-color="#E8C25D"/>
</linearGradient>
<linearGradient id="paint9_linear_78_256" x1="30.6136" y1="130.358" x2="43.8651" y2="166.486" gradientUnits="userSpaceOnUse">
<stop stop-color="#C88720"/>
<stop offset="1" stop-color="#D8A331"/>
</linearGradient>
<linearGradient id="paint10_linear_78_256" x1="42.75" y1="218.861" x2="20.8439" y2="238.139" gradientUnits="userSpaceOnUse">
<stop stop-color="#C88720"/>
<stop offset="1" stop-color="#D8A331"/>
</linearGradient>
<linearGradient id="paint11_linear_78_256" x1="47.7155" y1="217.2" x2="25.6324" y2="243.802" gradientUnits="userSpaceOnUse">
<stop stop-color="#C88720"/>
<stop offset="1" stop-color="#D8A331"/>
</linearGradient>
<linearGradient id="paint12_linear_78_256" x1="124.386" y1="130.358" x2="111.135" y2="166.486" gradientUnits="userSpaceOnUse">
<stop stop-color="#C88720"/>
<stop offset="1" stop-color="#D8A331"/>
</linearGradient>
<linearGradient id="paint13_linear_78_256" x1="112.25" y1="218.861" x2="134.157" y2="238.139" gradientUnits="userSpaceOnUse">
<stop stop-color="#C88720"/>
<stop offset="1" stop-color="#D8A331"/>
</linearGradient>
<linearGradient id="paint14_linear_78_256" x1="107.285" y1="217.2" x2="129.368" y2="243.802" gradientUnits="userSpaceOnUse">
<stop stop-color="#C88720"/>
<stop offset="1" stop-color="#D8A331"/>
</linearGradient>
<linearGradient id="paint15_linear_78_256" x1="15.5" y1="77.8179" x2="15.5" y2="123.318" gradientUnits="userSpaceOnUse">
<stop stop-color="#DCAF57"/>
<stop offset="1" stop-color="#AE9150"/>
</linearGradient>
<linearGradient id="paint16_linear_78_256" x1="22" y1="16.6493" x2="22" y2="78.3923" gradientUnits="userSpaceOnUse">
<stop stop-color="#FFD48E"/>
<stop offset="1" stop-color="#F7D267"/>
</linearGradient>
<linearGradient id="paint17_linear_78_256" x1="33.75" y1="16.8179" x2="33.75" y2="37.3179" gradientUnits="userSpaceOnUse">
<stop stop-color="#F1CFA6"/>
<stop offset="1" stop-color="#DEB151"/>
</linearGradient>
<linearGradient id="paint18_linear_78_256" x1="40.4588" y1="14.8179" x2="40.4588" y2="41.3179" gradientUnits="userSpaceOnUse">
<stop stop-color="#DAB049"/>
<stop offset="1" stop-color="#F3C69C"/>
</linearGradient>
<linearGradient id="paint19_linear_78_256" x1="139.5" y1="77.8179" x2="139.5" y2="123.318" gradientUnits="userSpaceOnUse">
<stop stop-color="#DCAF57"/>
<stop offset="1" stop-color="#AE9150"/>
</linearGradient>
<linearGradient id="paint20_linear_78_256" x1="133" y1="16.6493" x2="133" y2="78.3923" gradientUnits="userSpaceOnUse">
<stop stop-color="#FFD48E"/>
<stop offset="1" stop-color="#F7D267"/>
</linearGradient>
<linearGradient id="paint21_linear_78_256" x1="121.251" y1="16.8179" x2="121.251" y2="37.3179" gradientUnits="userSpaceOnUse">
<stop stop-color="#F1CFA6"/>
<stop offset="1" stop-color="#DEB151"/>
</linearGradient>
<linearGradient id="paint22_linear_78_256" x1="114.542" y1="14.8179" x2="114.542" y2="41.3179" gradientUnits="userSpaceOnUse">
<stop stop-color="#DAB049"/>
<stop offset="1" stop-color="#F3C69C"/>
</linearGradient>
</defs>
</svg>
