<svg width="101" height="40" viewBox="0 0 101 40" fill="none" xmlns="http://www.w3.org/2000/svg">
<path d="M100.346 31.5248V32.4561C100.362 34.5804 98.1044 35.413 92.4878 36.6469L79.2168 37.52C75.1683 38.7364 72.8646 39.1077 68.6815 39.0916L67.6338 39.499H61.8714H60.2998H55.4105L52.4153 39.2661L50.5212 39.3826L43.4783 37.6947C40.7905 37.1139 39.3078 36.7677 36.901 35.9485C36.2636 37.383 35.7847 37.9016 34.5727 37.9857H29.1596C26.9692 37.4787 26.2525 36.8733 25.3762 35.541C25.3762 35.541 23.63 35.0172 23.5136 34.6097C23.3972 34.2023 25.1434 33.6784 24.9687 33.3874C24.7941 33.0964 24.2919 32.8599 23.1644 32.6889C23.1644 32.6889 18.0422 33.6202 18.275 33.271C18.5079 32.9217 20.8943 31.0592 20.3705 30.9427C19.8466 30.8263 4.65482 29.5458 4.65482 29.5458C4.65482 29.5458 1.97734 31.9322 1.97734 31.1756V29.313C1.76125 28.6482 0.172958 27.916 0.638603 27.5668C1.10426 27.2175 2.03555 27.4504 2.03555 27.4504C3.36681 27.7962 3.92905 28.0735 4.82944 28.6145L5.93535 28.4399L20.7779 28.6145L30.0909 26.1116C30.0909 26.1116 19.8466 0.85014 20.0794 0.850143H27.3552C28.1463 0.843406 28.6193 1.19353 29.5088 2.3635L44.5842 23.2595L87.3657 22.9103C89.3286 23.0801 90.4099 23.2614 92.255 23.958C94.768 25.1541 96.0807 25.9137 97.7845 27.8578C99.1296 29.5753 100.299 30.8819 100.346 31.5248Z" fill="url(#paint0_linear_27_479)" stroke="#CFCFCF" stroke-opacity="0.7" stroke-width="0.349237"/>
<path d="M88.794 28.3235H90.7148C90.773 28.3235 91.064 31.6994 90.7148 31.6994H88.794C88.4448 31.6994 88.7358 28.3235 88.794 28.3235Z" stroke="#001A2A" stroke-width="0.232825"/>
<path d="M75.4703 28.3235H77.3911C77.4493 28.3235 77.7403 31.6994 77.3911 31.6994H75.4703C75.121 31.6994 75.4121 28.3235 75.4703 28.3235Z" stroke="#001A2A" stroke-width="0.232825"/>
<path d="M53.0554 24.1326H54.458C54.5162 24.1326 54.8072 27.1593 54.458 27.1593H53.0554C52.7062 27.1593 52.9972 24.1326 53.0554 24.1326Z" stroke="#001A2A" stroke-width="0.232825"/>
<path d="M95.9531 28.0906H97.0008L97.6411 28.9055H96.3024C96.3024 28.9055 96.186 28.6145 95.8949 28.6145C95.6039 28.6145 95.0218 29.4876 95.0218 29.4876C95.0218 29.4876 94.6144 29.5458 94.6144 29.4876C94.6144 29.4294 94.5562 29.0801 94.6144 29.0219C94.6726 28.9637 95.5457 27.8578 95.5457 27.8578C95.781 27.8619 95.8638 27.9203 95.9531 28.0906Z" fill="url(#paint1_linear_27_479)"/>
<path d="M94.3234 27.8578H94.9054C95.0218 27.8578 94.9054 28.0906 94.9054 28.0906C94.9054 28.0906 94.2652 29.313 94.1487 29.313H93.0428C93.0428 29.313 92.9846 29.1383 93.0428 29.0219C93.101 28.9055 94.0905 27.8578 94.3234 27.8578Z" fill="url(#paint2_linear_27_479)"/>
<path d="M23.1373 8.24231C27.5825 14.3301 29.9888 17.7682 34.0801 23.958C34.0801 23.958 31.519 23.8998 31.4026 23.8998C31.2862 23.8998 27.6774 19.5925 27.6774 19.5925L23.1373 8.24231Z" fill="#9D022D"/>
<path d="M41.1811 23.3177C41.4721 23.4924 43.7421 23.7834 42.578 23.7834H41.2975H38.5618L22.6133 1.25758H25.2326C25.2326 1.25758 40.89 23.143 41.1811 23.3177Z" fill="#020D3E"/>
<path d="M21.8567 1.25758L37.9215 23.7834H36.9902C36.6727 23.6367 36.5318 23.5221 36.35 23.2595L20.8672 1.25758H21.8567Z" fill="#020D3E"/>
<path d="M20.5179 1.54861L36.0007 23.7834H35.1858L21.7984 4.86637L20.5179 1.54861Z" fill="#020D3E"/>
<ellipse cx="0.349236" cy="0.349237" rx="0.349236" ry="0.349237" transform="matrix(-1 0 0 1 83.6138 25.0639)" fill="#000B20"/>
<ellipse cx="0.349236" cy="0.349237" rx="0.349236" ry="0.349237" transform="matrix(-1 0 0 1 87.2227 29.3712)" fill="#000B20"/>
<ellipse cx="0.349236" cy="0.349237" rx="0.349236" ry="0.349237" transform="matrix(-1 0 0 1 86.0581 29.3712)" fill="#000B20"/>
<ellipse cx="0.349236" cy="0.349237" rx="0.349236" ry="0.349237" transform="matrix(-1 0 0 1 84.894 29.3712)" fill="#000B20"/>
<ellipse cx="0.349236" cy="0.349237" rx="0.349236" ry="0.349237" transform="matrix(-1 0 0 1 83.73 29.3712)" fill="#000B20"/>
<ellipse cx="0.349236" cy="0.349237" rx="0.349236" ry="0.349237" transform="matrix(-1 0 0 1 82.5659 29.3712)" fill="#000B20"/>
<ellipse cx="0.349236" cy="0.349237" rx="0.349236" ry="0.349237" transform="matrix(-1 0 0 1 81.4019 29.3712)" fill="#000B20"/>
<ellipse cx="0.349236" cy="0.349237" rx="0.349236" ry="0.349237" transform="matrix(-1 0 0 1 80.2378 29.3712)" fill="#000B20"/>
<ellipse cx="0.349236" cy="0.349237" rx="0.349236" ry="0.349237" transform="matrix(-1 0 0 1 79.0737 29.3712)" fill="#000B20"/>
<ellipse cx="0.349236" cy="0.349237" rx="0.349236" ry="0.349237" transform="matrix(-1 0 0 1 74.1841 29.3712)" fill="#000B20"/>
<ellipse cx="0.349236" cy="0.349237" rx="0.349236" ry="0.349237" transform="matrix(-1 0 0 1 73.02 29.3712)" fill="#000B20"/>
<ellipse cx="0.349236" cy="0.349237" rx="0.349236" ry="0.349237" transform="matrix(-1 0 0 1 71.856 29.3712)" fill="#000B20"/>
<ellipse cx="0.349236" cy="0.349237" rx="0.349236" ry="0.349237" transform="matrix(-1 0 0 1 70.6919 29.3712)" fill="#000B20"/>
<ellipse cx="0.349236" cy="0.349237" rx="0.349236" ry="0.349237" transform="matrix(-1 0 0 1 69.5278 29.3712)" fill="#000B20"/>
<ellipse cx="0.349236" cy="0.349237" rx="0.349236" ry="0.349237" transform="matrix(-1 0 0 1 68.3638 29.3712)" fill="#000B20"/>
<ellipse cx="0.349236" cy="0.349237" rx="0.349236" ry="0.349237" transform="matrix(-1 0 0 1 67.1997 29.3712)" fill="#000B20"/>
<ellipse cx="0.349236" cy="0.349237" rx="0.349236" ry="0.349237" transform="matrix(-1 0 0 1 66.0352 29.3712)" fill="#000B20"/>
<ellipse cx="0.349236" cy="0.349237" rx="0.349236" ry="0.349237" transform="matrix(-1 0 0 1 64.8711 29.3712)" fill="#000B20"/>
<ellipse cx="0.349236" cy="0.349237" rx="0.349236" ry="0.349237" transform="matrix(-1 0 0 1 63.7075 29.3712)" fill="#000B20"/>
<ellipse cx="0.349236" cy="0.349237" rx="0.349236" ry="0.349237" transform="matrix(-1 0 0 1 62.543 29.3712)" fill="#000B20"/>
<ellipse cx="0.349236" cy="0.349237" rx="0.349236" ry="0.349237" transform="matrix(-1 0 0 1 61.3789 29.3712)" fill="#000B20"/>
<ellipse cx="0.349236" cy="0.349237" rx="0.349236" ry="0.349237" transform="matrix(-1 0 0 1 60.2148 29.3712)" fill="#000B20"/>
<ellipse cx="0.349236" cy="0.349237" rx="0.349236" ry="0.349237" transform="matrix(-1 0 0 1 59.0508 29.3712)" fill="#000B20"/>
<ellipse cx="0.349236" cy="0.349237" rx="0.349236" ry="0.349237" transform="matrix(-1 0 0 1 57.8867 29.3712)" fill="#000B20"/>
<ellipse cx="0.349236" cy="0.349237" rx="0.349236" ry="0.349237" transform="matrix(-1 0 0 1 82.4497 25.0639)" fill="#000B20"/>
<ellipse cx="0.349236" cy="0.349237" rx="0.349236" ry="0.349237" transform="matrix(-1 0 0 1 81.4019 25.0639)" fill="#000B20"/>
<ellipse cx="0.349236" cy="0.349237" rx="0.349236" ry="0.349237" transform="matrix(-1 0 0 1 80.354 25.0639)" fill="#000B20"/>
<ellipse cx="0.349236" cy="0.349237" rx="0.349236" ry="0.349237" transform="matrix(-1 0 0 1 79.3066 25.0639)" fill="#000B20"/>
<ellipse cx="0.349236" cy="0.349237" rx="0.349236" ry="0.349237" transform="matrix(-1 0 0 1 78.2588 25.0639)" fill="#000B20"/>
<ellipse cx="0.349236" cy="0.349237" rx="0.349236" ry="0.349237" transform="matrix(-1 0 0 1 77.2109 25.0639)" fill="#000B20"/>
<ellipse cx="0.349236" cy="0.349237" rx="0.349236" ry="0.349237" transform="matrix(-1 0 0 1 76.1631 25.0639)" fill="#000B20"/>
<ellipse cx="0.349236" cy="0.349237" rx="0.349236" ry="0.349237" transform="matrix(-1 0 0 1 75.1157 25.0639)" fill="#000B20"/>
<ellipse cx="0.349236" cy="0.349237" rx="0.349236" ry="0.349237" transform="matrix(-1 0 0 1 70.1099 25.0639)" fill="#000B20"/>
<ellipse cx="0.349236" cy="0.349237" rx="0.349236" ry="0.349237" transform="matrix(-1 0 0 1 68.9458 25.0639)" fill="#000B20"/>
<ellipse cx="0.349236" cy="0.349237" rx="0.349236" ry="0.349237" transform="matrix(-1 0 0 1 67.7812 25.0639)" fill="#000B20"/>
<ellipse cx="0.349236" cy="0.349237" rx="0.349236" ry="0.349237" transform="matrix(-1 0 0 1 66.6172 25.0639)" fill="#000B20"/>
<ellipse cx="0.349236" cy="0.349237" rx="0.349236" ry="0.349237" transform="matrix(-1 0 0 1 65.4536 25.0639)" fill="#000B20"/>
<ellipse cx="0.349236" cy="0.349237" rx="0.349236" ry="0.349237" transform="matrix(-1 0 0 1 64.2891 25.0639)" fill="#000B20"/>
<ellipse cx="0.349236" cy="0.349237" rx="0.349236" ry="0.349237" transform="matrix(-1 0 0 1 63.125 25.0639)" fill="#000B20"/>
<ellipse cx="0.349236" cy="0.349237" rx="0.349236" ry="0.349237" transform="matrix(-1 0 0 1 61.9609 25.0639)" fill="#000B20"/>
<ellipse cx="0.349236" cy="0.349237" rx="0.349236" ry="0.349237" transform="matrix(-1 0 0 1 60.7969 25.0639)" fill="#000B20"/>
<ellipse cx="0.349236" cy="0.349237" rx="0.349236" ry="0.349237" transform="matrix(-1 0 0 1 59.6328 25.0639)" fill="#000B20"/>
<ellipse cx="0.349236" cy="0.349237" rx="0.349236" ry="0.349237" transform="matrix(-1 0 0 1 58.4688 25.0639)" fill="#000B20"/>
<ellipse cx="0.349236" cy="0.349237" rx="0.349236" ry="0.349237" transform="matrix(-1 0 0 1 57.3047 25.0639)" fill="#000B20"/>
<ellipse cx="0.349236" cy="0.349237" rx="0.349236" ry="0.349237" transform="matrix(-1 0 0 1 56.1401 25.0639)" fill="#000B20"/>
<ellipse cx="0.349236" cy="0.349237" rx="0.349236" ry="0.349237" transform="matrix(-1 0 0 1 51.4839 25.0639)" fill="#000B20"/>
<ellipse cx="0.349236" cy="0.349237" rx="0.349236" ry="0.349237" transform="matrix(-1 0 0 1 50.3198 25.0639)" fill="#000B20"/>
<ellipse cx="0.349236" cy="0.349237" rx="0.349236" ry="0.349237" transform="matrix(-1 0 0 1 49.1558 25.0639)" fill="#000B20"/>
<ellipse cx="0.349236" cy="0.349237" rx="0.349236" ry="0.349237" transform="matrix(-1 0 0 1 47.9917 25.0639)" fill="#000B20"/>
<ellipse cx="0.349236" cy="0.349237" rx="0.349236" ry="0.349237" transform="matrix(-1 0 0 1 46.8271 25.0639)" fill="#000B20"/>
<ellipse cx="0.349236" cy="0.349237" rx="0.349236" ry="0.349237" transform="matrix(-1 0 0 1 45.6631 25.0639)" fill="#000B20"/>
<ellipse cx="0.349236" cy="0.349237" rx="0.349236" ry="0.349237" transform="matrix(-1 0 0 1 44.499 25.0639)" fill="#000B20"/>
<path d="M34.4876 29.8368C34.2548 29.8368 7.18896 29.1383 7.13075 29.1383C7.07255 29.1383 17.1423 30.4188 17.1423 30.4188C18.4156 30.527 20.8269 30.4526 20.9255 30.8844C20.9286 31.4515 20.2305 32.0052 19.0629 32.9798C19.0629 32.9798 19.878 32.9798 21.7406 32.5142C23.6031 32.0485 24.9527 32.7365 25.1164 33.2128C25.2802 33.689 24.9047 33.937 23.7776 34.5514C25.0823 35.2598 25.4804 35.4174 25.3492 35.0172C26.1882 36.3994 26.071 36.9939 27.9686 37.4617H32.3923C33.4153 37.5099 34.1801 37.8201 35.0697 37.4617C35.7209 36.8151 36.0012 36.2394 36.1757 35.3663C36.3501 34.4932 49.6212 38.6259 50.2032 38.7423C50.7853 38.8588 51.6002 38.7423 52.5315 38.7423C53.4627 38.7423 54.6851 38.8588 54.6851 38.8588H60.4475H60.9714H67.7815H68.5381C73.1781 38.9172 74.9339 38.5349 79.3063 37.1707C79.3063 37.1707 79.4228 36.4139 79.3646 36.1229C79.3064 35.8318 71.0993 37.5199 71.0993 37.5199C71.0993 37.5199 67.1994 37.9857 66.6174 37.52C66.0353 37.0544 70.8082 37.0544 70.8082 37.0544C73.4036 36.3583 74.8875 35.9793 75.4647 34.4933C75.5017 34.0741 75.5906 33.8624 75.4647 33.3874C75.1198 32.4724 74.6311 32.1522 73.3111 31.874L69.062 31.3502L60.0983 30.5353C60.0983 30.5353 58.0029 30.2442 57.8282 30.2442C57.6536 30.2442 57.3044 30.0696 57.188 30.0696C57.0716 30.0696 48.9809 29.5458 48.9809 29.5458L45.1393 29.2547L35.3607 28.4981L34.4876 28.1488L32.3922 27.625L27.5611 27.1011L21.333 28.7891L33.7891 29.2547L37.98 29.7204L57.188 30.8845C57.188 30.8845 64.8712 31.7576 64.9294 31.8158C64.9876 31.874 64.9876 32.8635 64.813 32.8635C64.6383 32.8635 55.9074 31.4084 55.9074 31.4084L50.2032 31.1755L35.5935 30.186C35.5935 30.186 34.7204 29.8368 34.4876 29.8368Z" fill="url(#paint3_linear_27_479)"/>
<path d="M53.9287 38.2185C53.4735 37.3712 53.5205 36.8105 53.4049 35.8902C53.4049 35.8902 47.7402 35.5134 47.7007 35.6573C47.6612 35.8013 48.3624 37.6471 50.3199 38.2185H53.9287Z" fill="#AAC0D0"/>
<path d="M54.9182 38.3349C54.4526 38.2184 53.7541 37.0544 54.0451 37.1708C54.3362 37.2872 54.6855 37.8692 55.5003 37.8693C56.3151 37.8694 57.3325 36.605 57.3629 35.541C57.2697 33.4459 56.7894 32.8479 55.7913 32.8635C54.245 32.9966 53.6794 33.5857 53.4049 35.8902C48.8482 36.0161 47.651 35.9603 47.7007 35.6574V34.5515C48.229 32.9302 48.9452 32.4117 51.0766 32.2815H55.7913C56.2297 32.373 56.4848 32.433 56.839 32.7471C58.0494 33.8524 58.1778 35.6573 57.8867 36.5305C57.5956 37.4037 56.6645 38.2184 56.3734 38.3349C56.0823 38.4514 55.3838 38.4514 54.9182 38.3349Z" fill="white"/>
<ellipse cx="1.68798" cy="2.32825" rx="1.68798" ry="2.32825" transform="matrix(-1 0 0 1 57.188 32.9799)" fill="#051E3C"/>
<path d="M31.3877 36.123C30.9325 35.2757 30.9794 34.7149 30.8639 33.7946C30.8639 33.7946 25.1992 33.4179 25.1597 33.5618C25.1202 33.7057 25.8213 35.5516 27.7789 36.123H31.3877Z" fill="#AAC0D0"/>
<path d="M32.3777 36.2394C31.9121 36.1229 31.2136 34.9588 31.5046 35.0753C31.7956 35.1917 32.1449 35.7736 32.9598 35.7737C33.7746 35.7738 34.7919 34.5095 34.8223 33.4455C34.7292 31.3504 34.2489 30.7524 33.2508 30.768C31.7045 30.9011 31.1389 31.4902 30.8643 33.7947C26.3076 33.9206 25.1105 33.8648 25.1601 33.5619V32.456C25.6885 30.8347 26.4047 30.3162 28.5361 30.1859H33.2508C33.6892 30.2775 33.9442 30.3375 34.2985 30.6516C35.5089 31.7569 35.6373 33.5618 35.3462 34.435C35.0551 35.3082 34.1239 36.1229 33.8328 36.2394C33.5417 36.3559 32.8433 36.3559 32.3777 36.2394Z" fill="white"/>
<ellipse cx="1.68798" cy="2.32825" rx="1.68798" ry="2.32825" transform="matrix(-1 0 0 1 34.6475 30.8844)" fill="#051E3C"/>
<path d="M74.1257 33.4456C74.5393 33.8316 74.5436 34.0349 74.1257 34.3769C74.1257 34.3769 65.6277 32.9798 65.5113 32.9798C65.3949 32.9798 65.5694 31.9322 65.5694 31.9322C65.5694 31.9322 73.4317 32.8334 74.1257 33.4456Z" fill="white"/>
<path d="M1.80733 29.1382C1.72644 28.8145 0.235766 27.6249 0.352179 27.6249C0.468591 27.6249 2.62222 28.6726 2.73863 28.9054C2.85504 29.1382 1.74913 31.059 1.74913 31.0008C1.74912 30.9426 1.79443 29.881 1.80733 29.1382Z" fill="black" stroke="#09274B" stroke-width="0.116412"/>
<defs>
<linearGradient id="paint0_linear_27_479" x1="91.297" y1="43.5152" x2="24.8837" y2="2.36341" gradientUnits="userSpaceOnUse">
<stop stop-color="white"/>
<stop offset="1" stop-color="#E1DCDC" stop-opacity="0"/>
</linearGradient>
<linearGradient id="paint1_linear_27_479" x1="95.329" y1="29.5134" x2="95.329" y2="27.8578" gradientUnits="userSpaceOnUse">
<stop stop-color="#051E3C"/>
<stop offset="1" stop-color="#134178"/>
</linearGradient>
<linearGradient id="paint2_linear_27_479" x1="95.329" y1="29.5134" x2="95.329" y2="27.8578" gradientUnits="userSpaceOnUse">
<stop stop-color="#051E3C"/>
<stop offset="1" stop-color="#134178"/>
</linearGradient>
<linearGradient id="paint3_linear_27_479" x1="79.3809" y1="34.5544" x2="7.13049" y2="34.5544" gradientUnits="userSpaceOnUse">
<stop stop-color="#051E3C"/>
<stop offset="1" stop-color="#134178"/>
</linearGradient>
</defs>
</svg>
